{"glyphs":{"0":{"ha":772,"x_min":128,"x_max":846,"o":"m 822 475 q 774 311 806 399 q 690 149 743 224 q 562 24 638 74 q 381 -26 486 -26 q 264 -3 311 -26 q 188 58 217 19 q 145 148 158 97 q 130 255 132 199 q 135 367 128 311 q 153 475 142 424 q 201 639 169 551 q 284 801 232 726 q 412 926 336 876 q 593 976 488 976 q 710 953 663 976 q 787 892 758 931 q 828 802 815 853 q 844 695 842 751 q 840 582 846 639 q 822 475 833 525 m 692 475 q 703 763 731 658 q 571 867 676 867 q 394 763 465 867 q 283 475 322 660 q 271 188 243 292 q 404 83 299 83 q 581 187 510 83 q 692 475 651 290 z "},"1":{"ha":772,"x_min":288,"x_max":706,"o":"m 499 0 l 368 0 l 515 693 l 288 693 l 308 790 q 413 801 368 794 q 492 827 458 808 q 554 881 526 846 q 610 976 582 917 l 706 976 l 499 0 z "},"2":{"ha":772,"x_min":36,"x_max":864,"o":"m 194 626 q 272 815 219 746 q 386 921 325 885 q 506 967 447 957 q 606 976 565 976 q 721 956 669 976 q 806 899 772 936 q 851 807 839 861 q 850 685 864 753 q 806 571 836 619 q 732 485 775 522 q 635 417 689 447 q 519 358 581 388 l 406 303 q 313 248 350 275 q 251 196 275 221 q 215 150 228 171 q 199 115 203 129 l 729 115 l 704 0 l 36 0 q 85 135 54 76 q 156 241 115 194 q 244 323 196 288 q 347 388 293 358 l 493 463 q 574 506 536 485 q 640 551 611 526 q 690 609 669 576 q 721 690 710 642 q 724 751 726 719 q 703 808 721 782 q 653 850 686 833 q 565 867 619 867 q 451 839 496 867 q 378 772 406 811 q 338 692 351 733 q 317 626 324 651 l 194 626 z "},"3":{"ha":772,"x_min":103,"x_max":853,"o":"m 429 556 q 461 553 444 554 q 493 553 478 553 q 563 560 528 553 q 628 587 599 568 q 681 636 658 606 q 713 713 703 667 q 715 761 717 735 q 699 811 714 788 q 651 851 683 835 q 565 867 619 867 q 458 844 500 867 q 390 788 417 821 q 351 718 364 754 q 331 657 338 682 l 211 657 q 247 767 222 711 q 317 870 272 824 q 429 947 361 917 q 593 976 497 976 q 716 957 664 976 q 799 903 768 938 q 842 822 831 869 q 840 719 853 775 q 811 638 831 672 q 768 578 792 603 q 719 539 744 554 q 672 518 693 524 l 672 515 q 731 485 706 504 q 772 439 757 467 q 792 374 788 411 q 786 288 796 336 q 742 171 774 228 q 658 70 710 114 q 533 0 606 26 q 368 -26 461 -26 q 272 -15 314 -26 q 197 17 229 -3 q 140 69 161 38 q 111 137 119 100 q 103 215 103 174 q 111 299 104 257 l 238 299 q 231 226 232 264 q 245 157 231 189 q 296 104 260 125 q 400 83 332 83 q 564 135 494 83 q 653 272 633 188 q 649 369 665 333 q 602 424 633 406 q 532 447 571 442 q 463 451 493 451 q 435 451 449 451 q 407 450 421 450 l 429 556 z "},"4":{"ha":772,"x_min":85,"x_max":800,"o":"m 221 343 l 535 343 l 628 786 l 625 786 l 221 343 m 633 238 l 583 0 l 461 0 l 511 238 l 85 238 l 111 357 l 689 976 l 790 976 l 657 343 l 800 343 l 776 238 l 633 238 z "},"5":{"ha":772,"x_min":88,"x_max":863,"o":"m 325 568 q 410 610 361 592 q 526 629 460 629 q 639 608 586 629 q 728 548 692 588 q 781 450 765 508 q 781 317 797 392 q 747 217 772 276 q 674 104 722 158 q 547 12 625 50 q 354 -26 468 -26 q 256 -15 306 -26 q 169 26 207 -4 q 109 109 131 57 q 96 243 88 161 l 222 243 q 263 118 214 157 q 394 79 313 79 q 483 97 442 79 q 558 145 525 115 q 615 216 592 175 q 647 303 638 257 q 650 396 658 356 q 618 464 642 436 q 558 506 594 492 q 476 519 522 519 q 372 495 424 519 q 276 426 321 471 l 172 432 l 357 956 l 863 956 l 838 836 l 424 836 l 325 568 z "},"6":{"ha":772,"x_min":124,"x_max":863,"o":"m 260 300 q 255 222 251 261 q 277 153 258 183 q 331 103 296 122 q 419 83 365 83 q 501 100 463 83 q 572 146 540 117 q 625 216 603 175 q 658 307 647 257 q 663 375 665 339 q 644 442 661 411 q 594 492 628 472 q 504 513 561 513 q 413 496 454 513 q 341 450 372 479 q 290 382 310 421 q 260 300 269 343 m 732 717 q 727 776 733 749 q 705 824 721 804 q 662 856 689 844 q 596 867 635 867 q 469 825 524 867 q 377 725 415 783 q 317 606 339 667 q 286 506 294 544 l 289 503 q 328 544 304 522 q 383 583 351 565 q 456 611 415 600 q 546 622 496 622 q 640 607 590 622 q 729 555 690 592 q 786 459 768 518 q 786 313 804 400 q 737 180 771 238 q 640 68 703 122 q 592 30 617 47 q 535 0 567 13 q 465 -19 504 -12 q 374 -26 425 -26 q 314 -19 346 -26 q 252 4 282 -12 q 196 48 222 21 q 153 115 169 75 q 126 272 124 185 q 150 454 129 358 q 180 567 161 508 q 227 685 199 626 q 293 796 256 743 q 379 889 331 849 q 488 953 428 929 q 621 976 547 976 q 708 964 663 976 q 790 921 754 951 q 844 841 825 890 q 851 717 863 792 l 732 717 z "},"7":{"ha":772,"x_min":190,"x_max":929,"o":"m 254 956 l 929 956 l 907 849 q 789 735 863 811 q 633 550 715 658 q 468 303 550 442 q 325 0 386 164 l 190 0 q 285 213 224 100 q 425 437 347 325 q 591 651 503 549 q 767 836 679 754 l 229 836 l 254 956 z "},"8":{"ha":772,"x_min":100,"x_max":846,"o":"m 503 564 q 577 576 542 564 q 640 609 613 588 q 685 659 667 631 q 710 721 703 688 q 711 769 714 743 q 693 816 708 794 q 646 852 678 838 q 560 867 614 867 q 476 851 511 867 q 418 813 442 836 q 382 764 394 790 q 364 714 369 738 q 365 651 357 679 q 393 604 374 624 q 441 574 413 585 q 503 564 469 564 m 482 458 q 389 443 431 458 q 317 402 347 428 q 269 344 288 376 q 243 278 250 311 q 238 215 236 249 q 257 151 240 181 q 310 103 274 122 q 410 83 346 83 q 479 91 443 83 q 548 119 515 99 q 606 175 581 139 q 644 268 632 211 q 646 353 654 318 q 615 413 638 389 q 558 447 593 436 q 482 458 524 458 m 838 725 q 805 637 826 672 q 759 578 783 601 q 710 541 735 554 q 668 519 686 528 q 739 469 714 499 q 774 408 764 440 q 784 342 785 375 q 778 282 783 310 q 734 168 765 224 q 653 69 703 113 q 536 0 604 26 q 382 -26 468 -26 q 334 -24 361 -26 q 276 -12 307 -21 q 217 10 246 -4 q 163 49 188 25 q 119 111 132 78 q 103 176 106 144 q 104 235 100 208 q 113 281 108 263 q 188 428 132 371 q 328 518 244 486 q 245 590 269 542 q 236 708 221 639 q 268 793 244 746 q 333 881 292 840 q 438 949 375 921 q 589 976 501 976 q 722 953 669 976 q 803 893 775 929 q 839 813 832 857 q 838 725 846 768 z "},"9":{"ha":772,"x_min":111,"x_max":847,"o":"m 476 436 q 534 444 500 436 q 602 475 568 451 q 666 542 636 499 q 711 658 696 586 q 717 738 719 700 q 696 804 714 775 q 644 850 678 833 q 558 867 611 867 q 408 806 472 867 q 322 647 343 746 q 317 535 307 576 q 353 472 328 493 q 412 443 378 450 q 476 436 446 436 m 435 326 q 315 349 367 326 q 231 411 264 371 q 189 510 199 451 q 194 642 179 568 q 242 769 208 708 q 324 876 275 829 q 438 949 374 922 q 579 976 501 976 q 708 954 657 976 q 788 894 758 932 q 831 809 818 857 q 846 711 844 761 q 840 612 847 661 q 825 524 833 563 q 806 447 819 497 q 767 335 792 396 q 707 210 743 274 q 621 93 671 146 q 504 7 571 40 q 354 -26 438 -26 q 218 1 268 -26 q 143 69 168 29 q 115 153 118 108 q 119 235 111 199 l 242 235 q 264 117 231 160 q 372 75 297 75 q 547 163 472 75 q 685 440 622 250 l 683 443 q 635 393 664 415 q 574 356 607 371 q 504 334 540 342 q 435 326 468 326 z "}," ":{"ha":386,"x_min":0,"x_max":0,"o":""}," ":{"ha":386,"x_min":0,"x_max":0,"o":""},"\"":{"ha":493,"x_min":233,"x_max":608,"o":"m 507 997 l 608 997 l 532 643 l 431 643 l 507 997 m 310 997 l 411 997 l 335 643 l 233 643 l 310 997 z "},"#":{"ha":772,"x_min":101,"x_max":876,"o":"m 436 576 l 367 379 l 540 379 l 608 576 l 436 576 m 499 0 l 407 0 l 510 292 l 336 292 l 233 0 l 142 0 l 244 292 l 101 292 l 132 379 l 275 379 l 343 576 l 200 576 l 232 664 l 375 664 l 476 956 l 569 956 l 468 664 l 640 664 l 742 956 l 835 956 l 733 664 l 876 664 l 844 576 l 701 576 l 632 379 l 775 379 l 744 292 l 601 292 l 499 0 z "},"$":{"ha":772,"x_min":88,"x_max":867,"o":"m 735 724 q 734 777 736 751 q 718 824 732 803 q 678 862 704 846 q 606 886 651 878 l 535 554 q 653 514 601 533 q 739 465 706 494 q 784 390 772 435 q 781 272 796 344 q 717 126 761 183 q 619 34 674 68 q 510 -13 565 0 q 411 -26 454 -26 l 383 -160 l 318 -160 l 346 -26 q 229 -6 282 -22 q 143 48 176 11 q 99 145 110 85 q 107 296 88 206 l 229 296 q 222 202 221 240 q 240 138 224 164 q 286 98 256 113 q 367 75 317 83 l 446 443 q 348 473 396 456 q 265 520 300 490 q 216 597 231 550 q 217 717 201 644 q 261 822 229 772 q 339 908 293 872 q 442 966 385 944 q 561 988 499 988 l 581 1076 l 646 1076 l 626 988 q 703 975 658 985 q 787 937 749 965 q 846 858 825 908 q 853 724 867 807 l 735 724 m 432 75 q 515 90 478 75 q 581 128 553 104 q 628 185 610 153 q 653 250 646 217 q 642 349 665 308 q 578 404 618 390 l 507 428 l 432 75 m 540 886 q 467 873 500 886 q 407 838 433 860 q 364 786 381 815 q 340 725 347 757 q 340 660 332 688 q 368 615 349 633 q 415 585 388 596 q 472 568 442 574 l 540 886 z "},"%":{"ha":1235,"x_min":199,"x_max":1239,"o":"m 374 -26 l 299 -26 l 1060 976 l 1136 976 l 374 -26 m 853 228 q 872 125 839 163 q 961 88 906 88 q 1019 99 992 88 q 1070 129 1047 110 q 1109 174 1093 149 q 1132 228 1125 199 q 1132 282 1138 257 q 1112 326 1126 307 q 1074 355 1097 344 q 1022 365 1051 365 q 965 354 993 365 q 913 324 936 343 q 874 281 890 306 q 853 228 858 256 m 756 228 q 794 320 765 278 q 861 394 822 363 q 947 444 900 426 q 1043 463 994 463 q 1131 444 1092 463 q 1195 394 1169 426 q 1230 319 1221 363 q 1229 228 1239 276 q 1191 135 1218 179 q 1125 60 1164 92 q 1039 9 1086 28 q 943 -10 992 -10 q 855 8 894 -10 q 790 59 815 26 q 754 135 764 92 q 756 228 744 178 m 307 731 q 326 628 293 665 q 415 590 360 590 q 474 601 446 590 q 524 632 501 613 q 563 676 547 651 q 586 731 579 701 q 586 785 592 760 q 566 828 581 810 q 528 858 551 847 q 476 868 506 868 q 419 857 447 868 q 367 827 390 846 q 328 783 344 808 q 307 731 313 758 m 210 731 q 248 823 219 781 q 315 897 276 865 q 401 947 354 929 q 497 965 449 965 q 585 947 546 965 q 649 897 624 929 q 684 822 675 865 q 683 731 693 779 q 644 638 672 682 q 578 563 617 594 q 492 512 539 531 q 396 493 444 493 q 308 511 347 493 q 243 562 268 529 q 208 638 218 594 q 210 731 199 681 z "},"&":{"ha":926,"x_min":106,"x_max":899,"o":"m 896 0 l 738 0 l 668 114 q 603 60 636 85 q 533 17 571 35 q 449 -10 494 0 q 350 -21 404 -21 q 244 -7 288 -21 q 174 30 201 7 q 131 81 146 53 q 111 139 117 110 q 107 194 106 168 q 113 240 108 221 q 142 332 124 292 q 192 409 160 372 q 275 481 224 446 q 404 554 326 515 q 369 614 383 588 q 348 665 356 640 q 340 717 340 690 q 346 775 339 743 q 378 858 354 818 q 439 929 403 899 q 524 978 475 960 q 629 997 572 997 q 726 979 688 997 q 785 932 764 961 q 811 866 806 903 q 808 792 817 829 q 771 699 797 739 q 711 627 744 658 q 642 572 678 596 q 574 531 606 549 l 710 314 q 732 353 722 336 q 749 388 742 371 q 765 423 757 404 q 783 469 772 442 l 899 469 q 850 352 883 418 q 764 215 817 286 l 896 0 m 526 610 q 575 640 549 624 q 624 678 601 657 q 665 724 647 699 q 689 782 682 750 q 689 837 696 815 q 668 870 682 858 q 637 887 654 882 q 604 892 619 892 q 540 879 565 892 q 499 850 514 867 q 476 815 483 833 q 465 783 468 796 q 465 733 460 758 q 480 685 469 708 q 503 643 490 663 q 526 610 515 624 m 454 471 q 372 423 408 446 q 309 375 336 400 q 263 320 282 350 q 236 250 244 290 q 240 172 226 203 q 277 121 253 140 q 331 93 301 101 q 381 85 360 85 q 621 196 517 85 l 454 471 z "},"'":{"ha":265,"x_min":218,"x_max":396,"o":"m 294 997 l 396 997 l 319 643 l 218 643 l 294 997 z "},"(":{"ha":463,"x_min":150,"x_max":631,"o":"m 631 1018 q 518 863 568 935 q 427 715 468 792 q 353 546 386 638 q 294 329 321 454 q 274 167 276 243 q 282 17 272 90 q 310 -131 292 -57 q 354 -287 329 -206 l 272 -287 q 207 -131 235 -207 q 165 22 179 -56 q 150 182 150 99 q 171 363 150 265 q 224 538 190 454 q 305 702 258 622 q 412 860 351 782 q 546 1018 472 938 l 631 1018 z "},")":{"ha":463,"x_min":-12,"x_max":468,"o":"m -12 -287 q 100 -133 50 -204 q 190 15 150 -62 q 263 184 231 92 q 322 401 296 276 q 343 564 340 488 q 336 714 346 640 q 307 862 326 788 q 264 1018 288 936 l 346 1018 q 411 861 383 936 q 453 709 439 786 q 467 549 468 632 q 446 368 467 465 q 393 192 426 276 q 313 28 360 108 q 206 -129 267 -51 q 72 -287 146 -207 l -12 -287 z "},"*":{"ha":540,"x_min":229,"x_max":660,"o":"m 272 897 l 407 844 l 440 997 l 524 997 l 490 844 l 647 897 l 660 821 l 499 774 l 565 646 l 488 599 l 425 729 l 307 599 l 249 646 l 368 774 l 229 821 l 272 897 z "},"+":{"ha":811,"x_min":118,"x_max":842,"o":"m 504 701 l 606 701 l 542 401 l 842 401 l 821 300 l 521 300 l 457 0 l 356 0 l 419 300 l 118 300 l 139 401 l 440 401 l 504 701 z "},",":{"ha":386,"x_min":78,"x_max":297,"o":"m 153 147 l 297 147 l 268 11 q 225 -101 253 -60 q 168 -165 197 -143 q 113 -195 139 -187 q 78 -204 88 -203 l 92 -140 q 131 -126 114 -139 q 160 -92 147 -112 q 181 -49 172 -72 q 194 0 189 -25 l 121 0 l 153 147 z "},"-":{"ha":463,"x_min":129,"x_max":496,"o":"m 469 322 l 129 322 l 156 447 l 496 447 l 469 322 z "},"­":{"ha":463,"x_min":129,"x_max":496,"o":"m 469 322 l 129 322 l 156 447 l 496 447 l 469 322 z "},".":{"ha":386,"x_min":121,"x_max":297,"o":"m 265 0 l 121 0 l 153 147 l 297 147 l 265 0 z "},"/":{"ha":386,"x_min":-29,"x_max":628,"o":"m 64 -26 l -29 -26 l 536 1024 l 628 1024 l 64 -26 z "},":":{"ha":386,"x_min":121,"x_max":418,"o":"m 386 569 l 242 569 l 274 717 l 418 717 l 386 569 m 265 0 l 121 0 l 153 147 l 297 147 l 265 0 z "},";":{"ha":386,"x_min":78,"x_max":418,"o":"m 242 569 l 274 717 l 418 717 l 386 569 l 242 569 m 153 147 l 297 147 l 268 11 q 225 -101 253 -60 q 168 -165 197 -143 q 113 -195 139 -187 q 78 -204 88 -203 l 92 -140 q 131 -126 114 -139 q 160 -92 147 -112 q 181 -49 172 -72 q 194 0 189 -25 l 121 0 l 153 147 z "},";":{"ha":386,"x_min":78,"x_max":418,"o":"m 242 569 l 274 717 l 418 717 l 386 569 l 242 569 m 153 147 l 297 147 l 268 11 q 225 -101 253 -60 q 168 -165 197 -143 q 113 -195 139 -187 q 78 -204 88 -203 l 92 -140 q 131 -126 114 -139 q 160 -92 147 -112 q 181 -49 172 -72 q 194 0 189 -25 l 121 0 l 153 147 z "},"<":{"ha":811,"x_min":131,"x_max":890,"o":"m 747 15 l 131 303 l 151 400 l 890 688 l 867 576 l 278 351 l 771 126 l 747 15 z "},"=":{"ha":811,"x_min":88,"x_max":872,"o":"m 790 160 l 88 160 l 110 261 l 813 261 l 790 160 m 850 440 l 147 440 l 169 542 l 872 542 l 850 440 z "},">":{"ha":811,"x_min":69,"x_max":829,"o":"m 213 688 l 829 400 l 808 303 l 69 15 l 93 126 l 683 351 l 189 576 l 213 688 z "},"?":{"ha":772,"x_min":224,"x_max":854,"o":"m 442 0 l 307 0 l 338 142 l 472 142 l 442 0 m 224 685 q 242 754 232 719 q 271 822 253 789 q 317 885 289 854 q 389 946 344 917 q 493 994 438 978 q 604 1010 549 1010 q 712 992 663 1010 q 794 940 761 975 q 841 855 828 906 q 840 738 854 804 q 820 676 833 703 q 786 622 807 649 q 735 569 765 596 q 661 508 704 542 q 594 454 622 478 q 547 405 567 431 q 513 347 526 379 q 489 268 499 315 l 486 254 l 364 254 q 392 353 376 314 q 429 425 407 393 q 483 486 451 457 q 560 553 515 515 q 628 611 601 588 q 671 655 654 635 q 696 696 688 675 q 711 746 704 717 q 714 795 715 768 q 699 847 713 822 q 656 888 685 871 q 576 904 626 904 q 467 878 510 904 q 399 817 425 853 q 362 744 374 782 q 346 685 350 707 l 224 685 z "},"@":{"ha":1410,"x_min":288,"x_max":1351,"o":"m 1083 772 l 1178 772 q 1104 624 1142 699 q 1035 487 1067 550 q 981 378 1003 424 q 957 319 960 333 q 957 290 953 300 q 978 279 961 279 q 1053 305 1013 279 q 1132 373 1094 331 q 1198 469 1169 415 q 1239 579 1226 524 q 1240 729 1257 663 q 1179 842 1222 796 q 1071 913 1136 888 q 926 938 1006 938 q 749 903 833 938 q 595 808 664 868 q 478 666 526 747 q 410 493 429 585 q 407 322 390 401 q 469 185 424 243 q 587 93 515 126 q 750 60 658 60 q 947 102 847 60 q 1121 218 1046 144 l 1214 218 q 1112 116 1168 161 q 992 39 1056 71 q 863 -10 929 7 q 729 -26 796 -26 q 530 15 618 -26 q 385 126 442 56 q 308 294 328 197 q 311 501 288 390 q 360 641 326 574 q 440 766 393 708 q 544 872 486 824 q 668 953 603 919 q 803 1005 733 986 q 946 1024 874 1024 q 1122 992 1042 1024 q 1255 902 1201 960 q 1330 765 1308 844 q 1331 590 1351 685 q 1260 422 1311 496 q 1149 295 1210 347 q 1024 216 1088 243 q 914 189 960 189 q 857 210 878 189 q 843 276 836 232 l 840 275 q 753 216 803 243 q 656 189 704 189 q 577 207 611 189 q 522 255 543 225 q 495 325 501 285 q 499 411 489 365 q 551 551 514 482 q 642 674 589 619 q 763 761 696 728 q 901 794 829 794 q 987 769 951 794 q 1038 686 1022 744 l 1083 772 m 969 567 q 970 615 975 592 q 953 656 965 639 q 923 684 942 674 q 882 694 904 694 q 792 668 836 694 q 711 602 747 642 q 649 515 675 563 q 615 424 624 467 q 626 326 603 364 q 703 289 650 289 q 791 317 747 289 q 872 386 835 344 q 935 476 908 428 q 969 567 961 525 z "},"A":{"ha":926,"x_min":19,"x_max":908,"o":"m 701 410 l 647 849 l 644 849 l 392 410 l 701 410 m 324 290 l 158 0 l 19 0 l 607 997 l 760 997 l 908 0 l 761 0 l 724 290 l 324 290 z "},"B":{"ha":926,"x_min":103,"x_max":993,"o":"m 263 115 l 550 115 q 718 165 656 115 q 799 297 781 214 q 796 383 810 350 q 753 434 782 415 q 683 459 724 453 q 601 465 643 465 l 336 465 l 263 115 m 315 997 l 754 997 q 872 977 824 997 q 949 922 921 957 q 985 842 976 888 q 982 746 993 797 q 965 692 976 721 q 933 636 954 664 q 881 583 913 608 q 804 538 850 557 q 855 513 826 528 q 905 470 883 497 q 937 401 926 443 q 933 294 947 358 q 888 181 921 235 q 803 88 854 128 q 683 24 751 47 q 532 0 615 0 l 103 0 l 315 997 m 360 575 l 603 575 q 763 610 700 575 q 846 736 826 644 q 822 844 861 807 q 669 882 782 882 l 425 882 l 360 575 z "},"C":{"ha":1003,"x_min":138,"x_max":1090,"o":"m 954 697 q 931 803 954 763 q 872 867 907 844 q 795 897 836 889 q 718 904 754 904 q 585 879 650 904 q 466 805 521 854 q 370 681 411 756 q 308 508 329 607 q 290 344 289 421 q 317 213 290 268 q 401 125 344 157 q 550 93 457 93 q 628 103 583 93 q 719 143 672 114 q 812 226 767 172 q 893 367 857 279 l 1024 367 q 944 207 990 272 q 846 98 897 142 q 742 29 794 54 q 642 -8 689 4 q 559 -24 596 -21 q 504 -26 522 -26 q 344 3 419 -26 q 220 95 269 32 q 154 259 171 158 q 168 504 138 360 q 245 715 193 619 q 372 878 297 810 q 542 985 447 947 q 744 1024 636 1024 q 908 996 840 1024 q 1017 923 975 968 q 1074 819 1058 878 q 1085 697 1090 760 l 954 697 z "},"D":{"ha":1003,"x_min":113,"x_max":1067,"o":"m 272 115 l 533 115 q 765 215 665 115 q 904 504 864 314 q 884 788 944 693 q 686 882 824 882 l 435 882 l 272 115 m 325 997 l 729 997 q 897 962 826 997 q 1007 863 967 926 q 1057 710 1047 799 q 1044 513 1067 621 q 987 338 1026 429 q 883 172 947 247 q 726 49 818 97 q 511 0 633 0 l 113 0 l 325 997 z "},"E":{"ha":926,"x_min":119,"x_max":1058,"o":"m 856 0 l 119 0 l 332 997 l 1058 997 l 1032 878 l 440 878 l 376 572 l 922 572 l 896 453 l 350 453 l 279 119 l 881 119 l 856 0 z "},"F":{"ha":849,"x_min":119,"x_max":1022,"o":"m 254 0 l 119 0 l 332 997 l 1022 997 l 996 878 l 440 878 l 376 572 l 865 572 l 839 453 l 350 453 l 254 0 z "},"G":{"ha":1081,"x_min":150,"x_max":1115,"o":"m 654 533 l 1092 533 l 978 0 l 890 0 l 886 129 q 723 16 819 58 q 524 -26 626 -26 q 413 -16 460 -26 q 334 11 367 -6 q 279 47 301 28 q 242 86 257 67 q 176 198 196 140 q 153 311 157 256 q 158 417 150 367 q 175 507 167 467 q 242 690 194 599 q 363 856 289 782 q 536 977 438 931 q 757 1024 635 1024 q 893 1003 826 1024 q 1010 943 960 983 q 1088 840 1060 903 q 1108 694 1115 778 l 978 694 q 951 801 975 760 q 890 865 926 842 q 809 896 853 888 q 724 904 765 904 q 592 878 657 904 q 471 800 526 851 q 374 673 415 749 q 313 500 333 597 q 294 350 296 424 q 318 218 293 276 q 400 124 343 160 q 557 89 457 89 q 599 91 575 89 q 651 99 624 93 q 710 118 679 106 q 774 153 742 131 q 888 272 851 206 q 940 418 924 338 l 629 418 l 654 533 z "},"H":{"ha":1003,"x_min":107,"x_max":1110,"o":"m 975 997 l 1110 997 l 897 0 l 763 0 l 861 465 l 340 465 l 242 0 l 107 0 l 319 997 l 454 997 l 365 585 l 886 585 l 975 997 z "},"I":{"ha":386,"x_min":126,"x_max":474,"o":"m 261 0 l 126 0 l 339 997 l 474 997 l 261 0 z "},"J":{"ha":694,"x_min":64,"x_max":807,"o":"m 218 321 l 203 251 q 197 176 193 207 q 217 125 201 144 q 258 97 232 106 q 319 89 285 89 q 400 102 367 89 q 456 138 433 115 q 493 193 479 161 q 515 261 507 225 l 672 997 l 807 997 l 651 269 q 595 125 633 182 q 508 34 557 68 q 406 -13 460 0 q 301 -26 351 -26 q 165 -1 214 -26 q 92 63 115 25 q 66 144 68 101 q 71 222 64 188 l 92 321 l 218 321 z "},"K":{"ha":926,"x_min":106,"x_max":1122,"o":"m 240 0 l 106 0 l 318 997 l 453 997 l 350 514 l 936 997 l 1122 997 l 621 594 l 921 0 l 746 0 l 504 500 l 315 350 l 240 0 z "},"L":{"ha":772,"x_min":106,"x_max":771,"o":"m 265 119 l 771 119 l 746 0 l 106 0 l 318 997 l 453 997 l 265 119 z "},"M":{"ha":1157,"x_min":101,"x_max":1269,"o":"m 926 0 l 1051 589 q 1060 627 1054 600 q 1074 690 1067 654 q 1091 764 1082 725 q 1107 838 1100 803 l 1104 838 l 646 0 l 513 0 l 410 836 l 407 836 q 392 763 400 801 q 378 689 385 724 q 365 627 371 654 q 357 589 360 600 l 232 0 l 101 0 l 314 997 l 507 997 l 613 154 l 615 154 l 1078 997 l 1269 997 l 1057 0 l 926 0 z "},"N":{"ha":1003,"x_min":106,"x_max":1110,"o":"m 979 997 l 1110 997 l 897 0 l 746 0 l 410 806 l 407 806 l 236 0 l 106 0 l 318 997 l 478 997 l 804 192 l 807 192 l 979 997 z "},"O":{"ha":1081,"x_min":143,"x_max":1149,"o":"m 1132 499 q 1098 385 1121 444 q 1040 267 1075 325 q 956 156 1004 208 q 844 62 907 103 q 705 -3 782 21 q 535 -26 628 -26 q 374 -3 442 -26 q 262 62 307 21 q 190 156 217 103 q 153 267 164 208 q 146 385 143 325 q 160 499 149 444 q 194 613 171 553 q 252 731 217 672 q 336 842 288 789 q 448 935 385 894 q 588 1000 511 976 q 758 1024 665 1024 q 919 1000 851 1024 q 1031 935 986 976 q 1102 842 1076 894 q 1138 731 1128 789 q 1146 613 1149 672 q 1132 499 1143 553 m 993 499 q 1003 660 1011 586 q 963 789 996 735 q 871 874 929 843 q 732 904 813 904 q 579 874 650 904 q 452 789 508 843 q 356 660 396 735 q 299 499 317 586 q 288 337 279 411 q 329 208 296 263 q 420 124 363 154 q 560 93 478 93 q 711 124 640 93 q 838 208 782 154 q 934 337 894 263 q 993 499 974 411 z "},"P":{"ha":926,"x_min":119,"x_max":1029,"o":"m 254 0 l 119 0 l 332 997 l 781 997 q 900 976 850 997 q 981 917 950 954 q 1020 828 1011 879 q 1017 717 1029 776 q 978 612 1006 664 q 907 517 951 560 q 800 447 863 474 q 657 421 738 421 l 343 421 l 254 0 m 368 536 l 636 536 q 721 545 682 536 q 791 575 760 554 q 844 631 822 596 q 876 715 865 665 q 878 794 886 763 q 848 846 871 826 q 791 874 825 865 q 715 882 757 882 l 442 882 l 368 536 z "},"Q":{"ha":1081,"x_min":143,"x_max":1149,"o":"m 933 -78 l 806 40 q 682 -9 750 8 q 535 -26 614 -26 q 374 -3 442 -26 q 262 62 307 21 q 190 156 217 103 q 153 267 164 208 q 146 385 143 325 q 160 499 149 444 q 194 613 171 553 q 252 731 217 672 q 336 842 288 789 q 448 935 385 894 q 588 1000 511 976 q 758 1024 665 1024 q 919 1000 851 1024 q 1031 935 986 976 q 1102 842 1076 894 q 1138 731 1128 789 q 1146 613 1149 672 q 1132 499 1143 553 q 1103 399 1122 451 q 1057 296 1085 347 q 991 197 1029 244 q 906 108 953 149 l 1018 3 l 933 -78 m 713 289 l 818 190 q 928 323 883 243 q 993 499 974 403 q 1003 660 1011 586 q 963 789 996 735 q 871 874 929 843 q 732 904 813 904 q 579 874 650 904 q 452 789 508 843 q 356 660 396 735 q 299 499 317 586 q 288 337 279 411 q 329 208 296 263 q 420 124 363 154 q 560 93 478 93 q 714 125 643 93 l 626 206 l 713 289 z "},"R":{"ha":1003,"x_min":122,"x_max":1083,"o":"m 372 543 l 685 543 q 760 549 722 543 q 830 574 797 556 q 888 626 863 593 q 924 715 913 660 q 925 807 936 774 q 890 857 914 840 q 835 878 865 874 q 781 882 806 882 l 444 882 l 372 543 m 257 0 l 122 0 l 335 997 l 796 997 q 913 985 857 997 q 1009 942 969 972 q 1066 860 1049 913 q 1067 729 1083 808 q 1033 635 1054 674 q 987 569 1013 596 q 932 523 961 542 q 876 490 903 504 q 914 471 896 482 q 944 440 932 460 q 961 387 957 419 q 956 303 965 354 l 926 122 q 922 60 918 81 q 954 22 926 40 l 950 0 l 785 0 q 785 59 782 22 q 794 133 789 96 q 806 203 800 171 q 814 250 811 236 q 822 313 821 281 q 811 370 824 344 q 766 412 799 396 q 674 428 733 428 l 347 428 l 257 0 z "},"S":{"ha":926,"x_min":122,"x_max":992,"o":"m 857 706 q 852 803 867 764 q 807 865 838 842 q 735 899 776 889 q 653 908 694 908 q 580 902 621 908 q 500 877 539 896 q 431 824 461 858 q 388 733 400 790 q 386 680 381 701 q 406 644 392 658 q 439 621 419 629 q 479 607 458 613 l 750 542 q 833 510 796 531 q 893 456 869 489 q 924 379 917 424 q 919 275 932 335 q 851 128 900 186 q 738 35 803 69 q 601 -12 674 1 q 465 -26 529 -26 q 349 -17 396 -26 q 269 6 301 -8 q 217 38 236 21 q 185 69 197 54 q 145 128 158 99 q 127 190 132 158 q 126 254 122 221 q 136 322 129 288 l 263 322 q 264 210 249 254 q 313 138 279 165 q 394 100 347 111 q 489 89 440 89 q 572 95 525 89 q 662 119 618 101 q 740 170 706 138 q 785 257 774 203 q 789 323 793 296 q 764 369 785 350 q 706 403 743 389 q 610 433 668 418 l 417 481 q 360 499 393 486 q 298 539 326 513 q 254 608 269 565 q 253 715 239 650 q 297 829 265 774 q 379 928 328 885 q 501 997 431 971 q 663 1024 572 1024 q 809 1008 750 1024 q 905 965 868 992 q 960 906 942 939 q 985 837 979 872 q 990 767 992 801 q 983 706 988 733 l 857 706 z "},"T":{"ha":849,"x_min":206,"x_max":1042,"o":"m 232 997 l 1042 997 l 1015 878 l 678 878 l 492 0 l 357 0 l 543 878 l 206 878 l 232 997 z "},"U":{"ha":1003,"x_min":165,"x_max":1107,"o":"m 1107 997 l 969 350 q 914 205 953 274 q 815 85 875 136 q 672 3 754 33 q 488 -26 590 -26 q 321 3 388 -26 q 218 83 254 33 q 174 198 182 133 q 181 332 165 263 l 322 997 l 457 997 l 324 369 q 317 235 306 288 q 357 150 328 182 q 428 106 386 118 q 517 93 471 93 q 613 106 563 93 q 706 149 663 118 q 785 232 750 179 q 838 367 821 285 l 972 997 l 1107 997 z "},"V":{"ha":926,"x_min":240,"x_max":1111,"o":"m 960 997 l 1111 997 l 535 0 l 392 0 l 240 997 l 390 997 l 494 147 l 497 147 l 960 997 z "},"W":{"ha":1311,"x_min":235,"x_max":1501,"o":"m 424 0 l 282 0 l 235 997 l 381 997 l 393 186 l 396 186 l 793 997 l 940 997 l 990 186 l 993 186 l 1353 997 l 1501 997 l 1026 0 l 885 0 l 832 826 l 829 826 l 424 0 z "},"X":{"ha":926,"x_min":26,"x_max":1097,"o":"m 900 0 l 733 0 l 553 410 l 189 0 l 26 0 l 492 511 l 261 997 l 431 997 l 601 615 l 936 997 l 1097 997 l 658 511 l 900 0 z "},"Y":{"ha":926,"x_min":232,"x_max":1119,"o":"m 531 0 l 396 0 l 481 401 l 232 997 l 389 997 l 572 518 l 961 997 l 1119 997 l 615 401 l 531 0 z "},"Z":{"ha":849,"x_min":32,"x_max":1029,"o":"m 817 0 l 32 0 l 56 113 l 829 878 l 264 878 l 290 997 l 1029 997 l 1004 881 l 228 119 l 842 119 l 817 0 z "},"[":{"ha":386,"x_min":29,"x_max":560,"o":"m 160 -174 l 310 -174 l 289 -272 l 29 -272 l 300 1003 l 560 1003 l 539 904 l 389 904 l 160 -174 z "},"\\":{"ha":386,"x_min":194,"x_max":404,"o":"m 194 1024 l 286 1024 l 404 -26 l 311 -26 l 194 1024 z "},"]":{"ha":386,"x_min":-19,"x_max":511,"o":"m 381 904 l 231 904 l 251 1003 l 511 1003 l 240 -272 l -19 -272 l 1 -174 l 151 -174 l 381 904 z "},"^":{"ha":651,"x_min":58,"x_max":749,"o":"m 642 367 l 506 844 l 167 367 l 58 367 l 479 956 l 579 956 l 749 367 l 642 367 z "},"_":{"ha":772,"x_min":-37,"x_max":750,"o":"m 750 -104 l 735 -174 l -37 -174 l -22 -104 l 750 -104 z "},"`":{"ha":463,"x_min":236,"x_max":468,"o":"m 236 1019 l 386 1019 l 468 824 l 375 824 l 236 1019 z "},"a":{"ha":772,"x_min":81,"x_max":781,"o":"m 613 371 q 592 360 604 365 q 556 349 579 354 q 497 338 533 344 q 401 325 460 332 q 349 316 378 322 q 295 297 321 310 q 249 263 269 285 q 221 207 228 242 q 232 114 208 147 q 325 81 256 81 q 411 94 368 81 q 491 130 454 107 q 553 184 528 153 q 586 251 579 215 l 613 371 m 193 506 q 241 617 210 571 q 317 692 272 663 q 420 734 363 721 q 544 747 478 747 q 584 745 558 747 q 638 736 610 743 q 694 716 667 729 q 743 680 722 703 q 772 624 764 657 q 771 544 781 590 l 682 126 q 714 83 674 83 q 733 85 722 83 q 756 89 744 86 l 736 0 q 703 -9 719 -4 q 667 -14 688 -14 q 603 -4 626 -14 q 570 21 581 6 q 559 56 560 36 q 561 97 558 76 q 511 57 539 78 q 449 19 483 36 q 370 -10 414 1 q 274 -21 326 -21 q 185 -6 224 -21 q 122 38 146 10 q 89 103 97 65 q 90 189 81 142 q 108 247 94 211 q 152 317 122 282 q 232 379 182 351 q 360 417 282 407 l 567 442 q 590 447 578 443 q 613 459 601 450 q 633 484 624 468 q 649 528 643 500 q 503 646 672 646 q 416 632 450 646 q 360 597 382 618 q 326 551 338 575 q 306 506 314 526 l 193 506 z "},"b":{"ha":772,"x_min":81,"x_max":817,"o":"m 669 365 q 682 447 676 400 q 677 537 688 494 q 633 608 667 579 q 529 638 600 638 q 417 606 463 638 q 341 528 371 575 q 294 427 311 481 q 267 329 276 374 q 262 210 251 257 q 296 135 272 163 q 352 96 319 107 q 414 85 385 85 q 505 106 464 85 q 578 165 546 128 q 634 254 611 203 q 669 365 657 306 m 81 0 l 293 997 l 415 997 l 338 635 l 340 635 q 451 719 393 693 q 574 747 510 746 q 697 719 646 747 q 776 642 747 692 q 810 527 804 593 q 800 385 817 461 q 756 248 786 319 q 676 117 725 176 q 557 18 626 57 q 394 -21 488 -21 q 317 -9 349 -21 q 266 19 286 3 q 235 56 246 36 q 218 90 224 75 l 215 90 l 196 0 l 81 0 z "},"c":{"ha":694,"x_min":99,"x_max":771,"o":"m 647 482 q 619 597 651 556 q 508 638 586 638 q 408 613 451 638 q 332 549 364 589 q 280 461 300 510 q 250 364 260 413 q 237 267 240 317 q 247 177 233 218 q 293 110 260 136 q 389 85 326 85 q 508 129 451 85 q 599 257 565 174 l 717 257 q 676 165 703 214 q 606 75 649 117 q 502 6 563 33 q 363 -21 442 -21 q 231 6 286 -21 q 145 82 176 33 q 106 197 114 131 q 115 343 99 264 q 169 501 133 428 q 260 630 206 575 q 386 716 314 685 q 549 747 458 747 q 665 724 619 747 q 734 662 710 700 q 765 576 758 624 q 765 482 771 529 l 647 482 z "},"d":{"ha":772,"x_min":117,"x_max":906,"o":"m 253 365 q 241 254 240 306 q 258 165 242 203 q 306 106 274 128 q 389 85 339 85 q 455 96 418 85 q 528 135 492 107 q 594 210 564 163 q 639 329 624 257 q 654 427 649 374 q 650 528 660 481 q 608 606 640 575 q 510 638 576 638 q 392 608 439 638 q 317 537 346 579 q 274 447 289 494 q 253 365 260 400 m 693 0 l 578 0 l 599 100 l 596 100 q 538 40 568 63 q 478 3 508 17 q 419 -16 449 -11 q 364 -21 390 -21 q 217 18 271 -21 q 140 117 164 57 q 117 247 117 176 q 131 385 117 319 q 181 527 147 461 q 264 642 215 593 q 375 719 313 692 q 510 747 438 747 q 592 734 560 747 q 647 701 625 721 q 681 660 668 682 q 700 624 693 639 l 703 624 l 783 997 l 906 997 l 693 0 z "},"e":{"ha":772,"x_min":113,"x_max":807,"o":"m 679 421 q 683 502 686 463 q 664 572 681 542 q 613 619 647 601 q 524 638 579 638 q 441 619 482 638 q 367 572 400 601 q 309 502 333 542 q 275 421 285 463 l 679 421 m 756 228 q 739 191 751 215 q 705 138 726 167 q 653 81 683 110 q 583 29 622 51 q 510 -4 556 13 q 376 -21 464 -21 q 245 6 300 -21 q 159 82 190 33 q 120 197 128 131 q 129 343 113 264 q 183 501 147 428 q 274 630 219 575 q 400 716 328 685 q 563 747 472 747 q 694 717 642 747 q 773 632 746 688 q 803 498 800 576 q 786 324 807 419 l 256 324 q 270 147 231 210 q 415 85 310 85 q 496 99 458 85 q 562 136 533 114 q 609 183 590 158 q 633 228 628 207 l 756 228 z "},"f":{"ha":386,"x_min":119,"x_max":578,"o":"m 375 625 l 242 0 l 119 0 l 253 625 l 153 625 l 174 726 l 274 726 l 300 851 q 376 973 318 935 q 524 1011 433 1011 q 551 1010 538 1011 q 578 1008 564 1010 l 556 899 q 531 901 544 900 q 506 901 517 901 q 445 881 465 901 q 415 817 425 861 l 396 726 l 518 726 l 497 625 l 375 625 z "},"g":{"ha":772,"x_min":51,"x_max":847,"o":"m 706 60 q 690 -3 700 33 q 663 -81 681 -40 q 615 -162 644 -122 q 542 -234 586 -203 q 436 -285 499 -265 q 290 -306 374 -306 q 215 -299 258 -306 q 135 -269 172 -292 q 75 -204 99 -247 q 58 -89 51 -161 l 181 -89 q 198 -156 181 -132 q 239 -190 215 -179 q 286 -202 263 -200 q 321 -204 310 -204 q 444 -178 397 -204 q 519 -115 492 -153 q 560 -34 547 -76 q 579 42 572 8 l 589 82 q 499 8 553 38 q 371 -21 444 -21 q 224 18 278 -21 q 147 117 171 57 q 124 247 124 176 q 138 385 124 319 q 188 527 154 461 q 271 642 222 593 q 382 719 319 692 q 517 747 444 747 q 600 733 567 747 q 655 700 633 719 q 689 658 676 681 q 710 619 701 636 l 732 726 l 847 726 l 706 60 m 260 365 q 248 254 247 306 q 265 165 249 203 q 313 106 281 128 q 396 85 346 85 q 462 96 425 85 q 535 135 499 107 q 601 210 571 163 q 646 329 631 257 q 661 427 656 374 q 657 528 667 481 q 615 606 647 575 q 517 638 583 638 q 399 608 446 638 q 324 537 353 579 q 281 447 296 494 q 260 365 267 400 z "},"h":{"ha":772,"x_min":90,"x_max":804,"o":"m 682 0 l 560 0 l 661 475 q 669 542 669 513 q 658 593 669 572 q 620 626 646 614 q 551 638 594 638 q 475 626 514 638 q 401 585 436 614 q 339 510 367 557 q 297 396 311 464 l 213 0 l 90 0 l 303 997 l 425 997 l 346 629 l 349 629 q 388 667 365 646 q 440 706 411 688 q 506 735 469 724 q 586 747 542 747 q 671 737 628 747 q 745 699 714 726 q 790 622 776 671 q 788 494 804 572 l 682 0 z "},"i":{"ha":308,"x_min":93,"x_max":428,"o":"m 275 858 l 306 997 l 428 997 l 397 858 l 275 858 m 215 0 l 93 0 l 247 726 l 369 726 l 215 0 z "},"j":{"ha":308,"x_min":-83,"x_max":428,"o":"m 397 858 l 275 858 l 306 997 l 428 997 l 397 858 m 193 -107 q 177 -162 188 -131 q 142 -223 167 -194 q 76 -272 118 -251 q -33 -292 35 -292 q -83 -287 -57 -292 l -61 -182 l -36 -182 q 8 -180 -10 -182 q 39 -169 26 -178 q 59 -142 51 -160 q 74 -93 67 -124 l 247 726 l 369 726 l 193 -107 z "},"k":{"ha":694,"x_min":93,"x_max":833,"o":"m 696 0 l 539 0 l 390 367 l 269 275 l 211 0 l 93 0 l 306 997 l 424 997 l 300 419 l 678 726 l 833 726 l 499 456 l 696 0 z "},"l":{"ha":308,"x_min":93,"x_max":428,"o":"m 215 0 l 93 0 l 306 997 l 428 997 l 215 0 z "},"m":{"ha":1157,"x_min":90,"x_max":1192,"o":"m 244 726 l 360 726 l 338 624 l 340 624 q 375 659 353 638 q 428 700 397 681 q 498 733 458 719 q 586 747 538 747 q 665 734 635 747 q 714 703 696 721 q 741 664 732 685 q 754 629 750 643 q 810 676 783 654 q 865 714 836 699 q 926 738 893 729 q 1001 747 960 747 q 1067 738 1031 747 q 1133 701 1104 728 q 1177 627 1163 675 q 1175 503 1192 579 l 1068 0 l 946 0 l 1046 469 q 1054 538 1054 507 q 1044 591 1054 569 q 1010 625 1033 613 q 947 638 986 638 q 874 621 908 638 q 810 577 839 604 q 763 515 782 550 q 735 443 743 479 l 640 0 l 518 0 l 625 503 q 629 549 629 525 q 621 593 629 574 q 593 625 613 613 q 540 638 574 638 q 478 628 514 638 q 408 591 443 618 q 343 517 374 564 q 297 396 313 469 l 213 0 l 90 0 l 244 726 z "},"n":{"ha":772,"x_min":90,"x_max":804,"o":"m 682 0 l 560 0 l 654 447 q 652 590 675 542 q 540 638 629 638 q 478 628 514 638 q 408 591 443 618 q 343 517 374 564 q 297 396 313 469 l 213 0 l 90 0 l 244 726 l 360 726 l 338 624 l 340 624 q 376 659 353 638 q 430 700 399 681 q 500 733 461 719 q 586 747 539 747 q 671 737 628 747 q 745 699 714 726 q 790 622 776 671 q 788 494 804 572 l 682 0 z "},"o":{"ha":772,"x_min":111,"x_max":815,"o":"m 253 364 q 243 280 244 328 q 256 189 242 232 q 304 116 269 146 q 404 86 339 86 q 517 116 469 86 q 597 189 565 146 q 648 280 629 232 q 675 364 667 328 q 685 448 683 400 q 672 539 686 496 q 623 612 658 582 q 522 642 588 642 q 410 612 457 642 q 330 539 363 582 q 279 448 297 496 q 253 364 261 400 m 126 364 q 175 503 140 435 q 263 626 210 572 q 387 714 317 681 q 544 747 457 747 q 688 714 632 747 q 774 626 744 681 q 810 503 804 572 q 801 364 815 435 q 751 224 786 293 q 663 101 717 156 q 540 14 610 47 q 382 -19 469 -19 q 238 14 294 -19 q 152 101 182 47 q 117 224 122 156 q 126 364 111 293 z "},"p":{"ha":772,"x_min":19,"x_max":817,"o":"m 235 726 l 350 726 l 328 624 l 331 624 q 366 660 344 639 q 417 701 388 682 q 485 734 447 721 q 574 747 524 747 q 697 719 646 747 q 776 642 747 692 q 810 527 804 593 q 800 385 817 461 q 756 248 786 319 q 676 117 725 176 q 557 18 626 57 q 394 -21 488 -21 q 279 8 321 -21 q 222 76 238 38 l 219 76 l 142 -287 l 19 -287 l 235 726 m 267 329 q 262 210 251 257 q 296 135 272 163 q 352 96 319 107 q 414 85 385 85 q 505 106 464 85 q 578 165 546 128 q 634 254 611 203 q 669 365 657 306 q 682 447 676 400 q 677 537 688 494 q 633 608 667 579 q 529 638 600 638 q 417 606 463 638 q 341 528 371 575 q 294 427 311 481 q 267 329 276 374 z "},"q":{"ha":772,"x_min":117,"x_max":840,"o":"m 639 329 q 654 427 649 374 q 650 528 660 481 q 608 606 640 575 q 510 638 576 638 q 392 608 439 638 q 317 537 346 579 q 274 447 289 494 q 253 365 260 400 q 241 254 240 306 q 258 165 242 203 q 306 106 274 128 q 389 85 339 85 q 455 96 418 85 q 528 135 492 107 q 594 210 564 163 q 639 329 624 257 m 625 -287 l 503 -287 l 581 76 l 578 76 q 492 8 546 38 q 364 -21 438 -21 q 217 18 271 -21 q 140 117 164 57 q 117 247 117 176 q 131 385 117 319 q 181 527 147 461 q 264 642 215 593 q 375 719 313 692 q 510 747 438 747 q 592 734 560 747 q 647 701 625 721 q 681 660 668 682 q 700 624 693 639 l 703 624 l 725 726 l 840 726 l 625 -287 z "},"r":{"ha":463,"x_min":107,"x_max":619,"o":"m 229 0 l 107 0 l 261 726 l 376 726 l 351 606 l 354 606 q 461 708 404 669 q 588 747 518 747 q 606 747 599 747 q 619 743 613 746 l 592 617 l 546 617 q 465 601 503 617 q 398 559 428 586 q 348 497 368 532 q 319 422 328 461 l 229 0 z "},"s":{"ha":694,"x_min":88,"x_max":736,"o":"m 613 519 q 616 558 617 536 q 601 598 615 579 q 556 629 588 617 q 467 642 525 642 q 428 638 453 642 q 376 624 403 635 q 328 593 350 614 q 300 539 307 572 q 300 502 296 517 q 318 477 304 488 q 356 458 332 467 q 413 442 379 450 l 528 411 q 671 338 635 383 q 692 219 707 293 q 648 118 679 163 q 572 43 617 74 q 470 -4 526 13 q 353 -21 414 -21 q 189 6 244 -21 q 110 73 133 33 q 88 156 88 113 q 94 233 89 200 l 213 233 q 210 186 210 213 q 226 138 211 160 q 274 100 240 115 q 374 85 308 85 q 438 92 407 85 q 495 113 469 99 q 540 148 521 126 q 565 200 558 169 q 546 264 575 243 q 443 304 517 285 l 308 339 q 199 399 236 358 q 178 515 163 440 q 222 619 190 575 q 299 691 254 663 q 395 733 343 719 q 501 747 447 747 q 648 717 599 747 q 717 647 697 686 q 735 570 736 607 q 731 519 733 533 l 613 519 z "},"t":{"ha":386,"x_min":142,"x_max":511,"o":"m 374 625 l 272 153 q 274 120 268 132 q 290 103 279 108 q 313 97 300 97 q 335 96 325 96 l 378 96 l 357 0 q 298 -6 322 -3 q 264 -10 274 -10 q 192 2 218 -10 q 154 35 167 14 q 142 83 142 56 q 149 146 142 113 l 251 625 l 153 625 l 174 726 l 272 726 l 315 929 l 438 929 l 394 726 l 511 726 l 490 625 l 374 625 z "},"u":{"ha":772,"x_min":124,"x_max":833,"o":"m 564 0 l 586 106 l 585 108 q 473 12 532 44 q 326 -21 414 -21 q 247 -10 286 -21 q 178 26 207 0 q 137 96 150 53 q 138 204 124 139 l 249 726 l 371 726 l 268 244 q 263 169 258 200 q 283 120 268 139 q 322 93 297 101 q 375 85 346 85 q 476 108 433 85 q 550 166 519 131 q 599 244 581 201 q 626 326 618 286 l 711 726 l 833 726 l 679 0 l 564 0 z "},"v":{"ha":694,"x_min":165,"x_max":838,"o":"m 704 726 l 838 726 l 407 0 l 276 0 l 165 726 l 307 726 l 371 135 l 374 135 l 704 726 z "},"w":{"ha":1003,"x_min":174,"x_max":1139,"o":"m 356 0 l 229 0 l 174 726 l 307 726 l 325 156 l 328 156 l 589 726 l 725 726 l 746 156 l 749 156 l 1017 726 l 1139 726 l 774 0 l 647 0 l 619 563 l 617 563 l 356 0 z "},"x":{"ha":694,"x_min":15,"x_max":825,"o":"m 681 0 l 525 0 l 403 274 l 169 0 l 15 0 l 350 374 l 182 726 l 339 726 l 453 471 l 675 726 l 825 726 l 504 374 l 681 0 z "},"y":{"ha":694,"x_min":21,"x_max":833,"o":"m 699 726 l 833 726 q 631 370 732 547 q 421 14 529 193 q 313 -159 354 -97 q 238 -252 272 -221 q 167 -290 204 -283 q 71 -297 129 -297 q 46 -294 57 -297 q 21 -286 35 -290 l 44 -175 q 73 -183 56 -179 q 115 -187 90 -187 q 155 -183 139 -187 q 188 -160 171 -178 q 226 -109 204 -142 q 281 -19 247 -76 l 169 726 l 308 726 l 376 135 l 379 135 l 699 726 z "},"z":{"ha":694,"x_min":43,"x_max":793,"o":"m 228 101 l 674 101 l 651 0 l 43 0 l 64 96 l 614 625 l 210 625 l 231 726 l 793 726 l 772 626 l 228 101 z "},"{":{"ha":464,"x_min":128,"x_max":618,"o":"m 144 408 q 192 422 168 408 q 235 458 215 435 q 271 515 256 482 q 294 585 286 547 l 346 824 q 374 900 354 867 q 418 956 393 933 q 471 991 443 979 q 525 1003 499 1003 l 618 1003 l 600 913 l 539 913 q 482 879 503 913 q 450 799 461 846 l 400 563 q 363 476 386 511 q 315 417 339 440 q 269 383 290 394 q 236 368 247 371 l 236 365 q 263 351 246 363 q 295 317 281 340 q 317 258 310 294 q 317 167 325 221 l 267 -68 q 263 -148 256 -114 q 306 -182 269 -182 l 367 -182 l 347 -272 l 254 -272 q 205 -260 228 -272 q 167 -226 182 -249 q 147 -169 151 -203 q 151 -93 142 -136 l 201 144 q 197 274 218 224 q 128 325 176 325 l 144 408 z "},"|":{"ha":361,"x_min":64,"x_max":461,"o":"m 461 1076 l 165 -312 l 64 -312 l 360 1076 l 461 1076 z "},"}":{"ha":464,"x_min":0,"x_max":492,"o":"m 475 325 q 428 311 451 325 q 384 274 404 297 q 348 217 364 250 q 324 144 332 183 l 274 -93 q 244 -169 264 -136 q 200 -226 225 -203 q 147 -260 175 -249 q 93 -272 119 -272 l 0 -272 l 19 -182 l 81 -182 q 138 -148 117 -182 q 169 -68 158 -114 l 219 167 q 257 258 233 221 q 305 317 281 294 q 351 351 329 340 q 383 365 372 363 l 383 368 q 357 383 374 371 q 326 417 340 394 q 303 476 311 440 q 303 563 294 511 l 353 799 q 357 879 364 846 q 314 913 350 913 l 253 913 l 271 1003 l 364 1003 q 413 991 390 1003 q 451 956 436 979 q 472 900 467 933 q 468 824 476 867 l 417 585 q 422 458 401 508 q 492 408 443 408 l 475 325 z "},"~":{"ha":811,"x_min":154,"x_max":806,"o":"m 806 375 q 714 290 764 325 q 607 256 664 256 q 537 269 568 256 q 475 301 506 282 q 410 335 446 321 q 326 350 375 350 q 247 318 281 350 q 188 250 213 286 l 154 328 q 190 372 171 350 q 235 410 210 393 q 289 437 260 426 q 353 447 318 447 q 426 434 389 447 q 499 403 463 421 q 578 366 546 379 q 629 353 611 353 q 669 362 650 353 q 706 385 688 371 q 740 417 724 399 q 772 453 757 435 l 806 375 z "},"":{"ha":772,"x_min":101,"x_max":936,"o":"m 865 742 q 803 830 850 793 q 668 867 757 867 q 571 844 614 867 q 494 787 528 822 q 438 707 461 751 q 400 617 414 663 l 796 617 l 742 517 l 375 517 l 354 418 l 686 418 l 632 318 l 342 318 q 342 222 333 265 q 371 147 350 178 q 423 100 392 117 q 494 83 454 83 q 573 94 533 83 q 647 119 613 104 q 707 151 681 135 q 746 182 733 168 l 717 44 q 690 29 711 40 q 638 6 669 18 q 565 -17 606 -7 q 481 -26 525 -26 q 265 61 333 -26 q 211 318 196 149 l 101 318 l 157 418 l 224 418 l 244 517 l 144 517 l 200 617 l 271 617 q 431 882 324 788 q 699 976 539 976 q 851 946 790 976 q 936 872 913 915 l 865 742 z "},"€":{"ha":772,"x_min":101,"x_max":936,"o":"m 865 742 q 803 830 850 793 q 668 867 757 867 q 571 844 614 867 q 494 787 528 822 q 438 707 461 751 q 400 617 414 663 l 796 617 l 742 517 l 375 517 l 354 418 l 686 418 l 632 318 l 342 318 q 342 222 333 265 q 371 147 350 178 q 423 100 392 117 q 494 83 454 83 q 573 94 533 83 q 647 119 613 104 q 707 151 681 135 q 746 182 733 168 l 717 44 q 690 29 711 40 q 638 6 669 18 q 565 -17 606 -7 q 481 -26 525 -26 q 265 61 333 -26 q 211 318 196 149 l 101 318 l 157 418 l 224 418 l 244 517 l 144 517 l 200 617 l 271 617 q 431 882 324 788 q 699 976 539 976 q 851 946 790 976 q 936 872 913 915 l 865 742 z "},"‚":{"ha":308,"x_min":29,"x_max":250,"o":"m 106 147 l 250 147 l 221 11 q 198 -65 213 -29 q 160 -128 183 -100 q 106 -177 138 -157 q 29 -207 74 -197 l 43 -142 q 90 -122 71 -137 q 119 -85 108 -106 q 137 -41 131 -64 q 147 0 143 -18 l 74 0 l 106 147 z "},"ƒ":{"ha":772,"x_min":-72,"x_max":908,"o":"m 865 894 q 827 911 844 904 q 790 918 810 918 q 740 904 763 918 q 701 870 718 890 q 671 826 683 850 q 650 783 658 803 l 592 640 l 750 640 l 729 543 l 553 543 l 374 89 q 288 -89 332 -17 q 199 -205 244 -161 q 107 -268 154 -249 q 10 -287 60 -287 q -42 -283 -26 -287 q -72 -271 -58 -278 l -28 -158 q 1 -172 -15 -165 q 39 -178 17 -178 q 100 -161 74 -178 q 149 -113 126 -144 q 192 -37 171 -82 q 235 64 213 7 l 425 543 l 274 543 l 294 640 l 465 640 l 540 813 q 583 888 557 850 q 644 955 610 925 q 719 1004 678 985 q 806 1024 760 1024 q 869 1017 849 1024 q 908 1003 889 1011 l 865 894 z "},"„":{"ha":463,"x_min":-8,"x_max":442,"o":"m 297 147 l 442 147 l 413 11 q 390 -65 404 -29 q 352 -128 375 -100 q 297 -177 329 -157 q 221 -207 265 -197 l 235 -142 q 281 -122 263 -137 q 311 -85 300 -106 q 328 -41 322 -64 q 339 0 335 -18 l 265 0 l 297 147 m 68 147 l 213 147 l 183 11 q 160 -65 175 -29 q 123 -128 146 -100 q 68 -177 100 -157 q -8 -207 36 -197 l 6 -142 q 52 -122 33 -137 q 82 -85 71 -106 q 99 -41 93 -64 q 110 0 106 -18 l 36 0 l 68 147 z "},"…":{"ha":1389,"x_min":160,"x_max":1261,"o":"m 1229 0 l 1085 0 l 1117 147 l 1261 147 l 1229 0 m 767 0 l 622 0 l 654 147 l 799 147 l 767 0 m 304 0 l 160 0 l 192 147 l 336 147 l 304 0 z "},"†":{"ha":772,"x_min":188,"x_max":864,"o":"m 406 -221 l 275 -221 l 450 599 l 188 599 l 210 704 l 472 704 l 535 997 l 665 997 l 603 704 l 864 704 l 842 599 l 581 599 l 406 -221 z "},"‡":{"ha":772,"x_min":72,"x_max":865,"o":"m 488 165 l 749 165 l 726 60 l 465 60 l 406 -221 l 275 -221 l 335 60 l 72 60 l 94 165 l 357 165 l 451 610 l 189 610 l 211 715 l 474 715 l 535 997 l 665 997 l 604 715 l 865 715 l 843 610 l 582 610 l 488 165 z "},"ˆ":{"ha":463,"x_min":204,"x_max":608,"o":"m 314 824 l 204 824 l 383 1019 l 513 1019 l 608 824 l 497 824 l 433 953 l 314 824 z "},"‰":{"ha":1389,"x_min":122,"x_max":1435,"o":"m 199 -26 l 122 -26 l 886 976 l 963 976 l 199 -26 m 1079 207 q 1097 116 1068 154 q 1181 78 1125 78 q 1233 88 1207 78 q 1280 116 1258 99 q 1317 157 1301 133 q 1338 207 1332 181 q 1338 257 1343 233 q 1318 299 1332 281 q 1283 326 1304 317 q 1235 336 1261 336 q 1181 326 1207 336 q 1135 297 1156 315 q 1099 256 1114 279 q 1079 207 1085 233 m 992 207 q 1026 292 1001 253 q 1088 361 1051 332 q 1167 407 1124 390 q 1254 424 1210 424 q 1335 406 1299 424 q 1394 360 1371 389 q 1426 291 1417 331 q 1425 207 1435 251 q 1390 123 1415 163 q 1328 54 1364 83 q 1251 8 1293 25 q 1163 -10 1208 -10 q 1082 7 1118 -10 q 1022 53 1046 24 q 990 122 999 82 q 992 207 982 161 m 575 207 q 592 116 564 154 q 676 78 621 78 q 728 88 703 78 q 776 116 754 99 q 813 157 797 133 q 833 207 828 181 q 833 257 839 233 q 814 299 828 281 q 778 326 800 317 q 731 336 757 336 q 677 326 703 336 q 631 297 651 315 q 595 256 610 279 q 575 207 581 233 m 488 207 q 522 292 497 253 q 583 361 547 332 q 663 407 619 390 q 750 424 706 424 q 831 406 794 424 q 890 360 867 389 q 922 291 913 331 q 921 207 931 251 q 885 123 911 163 q 824 54 860 83 q 747 8 789 25 q 658 -10 704 -10 q 578 7 614 -10 q 518 53 542 24 q 486 122 494 82 q 488 207 478 161 m 257 749 q 274 658 246 696 q 358 619 303 619 q 410 630 385 619 q 458 658 436 640 q 494 699 479 675 q 515 749 510 722 q 515 799 521 775 q 496 840 510 822 q 460 868 482 858 q 413 878 439 878 q 359 867 385 878 q 313 839 333 857 q 277 798 292 821 q 257 749 263 775 m 169 749 q 204 834 179 794 q 265 903 229 874 q 344 949 301 932 q 432 965 388 965 q 513 948 476 965 q 572 901 549 931 q 603 833 594 872 q 603 749 613 793 q 567 665 593 704 q 506 596 542 625 q 428 549 471 567 q 339 532 385 532 q 258 549 294 532 q 199 594 222 565 q 168 663 176 624 q 169 749 160 703 z "},"Š":{"ha":926,"x_min":122,"x_max":992,"o":"m 710 1161 l 828 1290 l 939 1290 l 760 1094 l 631 1094 l 535 1290 l 644 1290 l 710 1161 m 857 706 q 852 803 867 764 q 807 865 838 842 q 735 899 776 889 q 653 908 694 908 q 580 902 621 908 q 500 877 539 896 q 431 824 461 858 q 388 733 400 790 q 386 680 381 701 q 406 644 392 658 q 439 621 419 629 q 479 607 458 613 l 750 542 q 833 510 796 531 q 893 456 869 489 q 924 379 917 424 q 919 275 932 335 q 851 128 900 186 q 738 35 803 69 q 601 -12 674 1 q 465 -26 529 -26 q 349 -17 396 -26 q 269 6 301 -8 q 217 38 236 21 q 185 69 197 54 q 145 128 158 99 q 127 190 132 158 q 126 254 122 221 q 136 322 129 288 l 263 322 q 264 210 249 254 q 313 138 279 165 q 394 100 347 111 q 489 89 440 89 q 572 95 525 89 q 662 119 618 101 q 740 170 706 138 q 785 257 774 203 q 789 323 793 296 q 764 369 785 350 q 706 403 743 389 q 610 433 668 418 l 417 481 q 360 499 393 486 q 298 539 326 513 q 254 608 269 565 q 253 715 239 650 q 297 829 265 774 q 379 928 328 885 q 501 997 431 971 q 663 1024 572 1024 q 809 1008 750 1024 q 905 965 868 992 q 960 906 942 939 q 985 837 979 872 q 990 767 992 801 q 983 706 988 733 l 857 706 z "},"‹":{"ha":463,"x_min":190,"x_max":472,"o":"m 372 150 l 190 321 l 218 449 l 472 619 l 446 497 l 276 385 l 399 272 l 372 150 z "},"Œ":{"ha":1389,"x_min":131,"x_max":1550,"o":"m 939 997 l 1550 997 l 1524 878 l 1039 878 l 975 572 l 1438 572 l 1411 453 l 949 453 l 878 119 l 1365 119 l 1340 0 l 725 0 l 747 104 l 744 104 q 697 58 722 82 q 638 16 672 35 q 559 -15 604 -3 q 451 -26 514 -26 q 285 13 353 -26 q 181 121 218 51 q 138 285 144 190 q 154 493 131 381 q 185 600 165 542 q 235 717 204 658 q 310 831 267 776 q 409 929 353 886 q 536 998 465 972 q 694 1024 607 1024 q 797 1008 757 1024 q 860 972 836 993 q 897 930 885 951 q 914 896 908 908 l 917 896 l 939 997 m 864 683 q 866 776 875 735 q 831 847 857 818 q 765 892 806 876 q 671 908 724 908 q 551 885 604 908 q 459 825 499 863 q 390 740 419 788 q 341 644 361 693 q 308 550 321 596 q 289 471 296 504 q 274 358 276 410 q 279 263 271 307 q 304 187 288 219 q 348 133 321 154 q 416 100 375 111 q 515 89 457 89 q 590 101 549 89 q 671 141 632 114 q 741 213 710 168 q 786 319 772 257 l 864 683 z "},"":{"ha":849,"x_min":32,"x_max":1029,"o":"m 671 1161 l 789 1290 l 900 1290 l 721 1094 l 592 1094 l 496 1290 l 606 1290 l 671 1161 m 817 0 l 32 0 l 56 113 l 829 878 l 264 878 l 290 997 l 1029 997 l 1004 881 l 228 119 l 842 119 l 817 0 z "},"Ž":{"ha":849,"x_min":32,"x_max":1029,"o":"m 671 1161 l 789 1290 l 900 1290 l 721 1094 l 592 1094 l 496 1290 l 606 1290 l 671 1161 m 817 0 l 32 0 l 56 113 l 829 878 l 264 878 l 290 997 l 1029 997 l 1004 881 l 228 119 l 842 119 l 817 0 z "},"‘":{"ha":308,"x_min":229,"x_max":449,"o":"m 374 653 l 229 653 l 258 789 q 281 865 267 829 q 317 928 294 900 q 372 977 340 957 q 449 1007 404 997 l 435 942 q 388 922 407 938 q 358 885 369 906 q 341 841 347 864 q 331 800 335 818 l 404 800 l 374 653 z "},"’":{"ha":308,"x_min":210,"x_max":431,"o":"m 286 997 l 431 997 l 401 861 q 378 785 393 821 q 341 722 364 750 q 286 673 318 693 q 210 643 254 653 l 224 708 q 270 728 251 713 q 300 765 289 744 q 317 809 311 786 q 328 850 324 832 l 254 850 l 286 997 z "},"“":{"ha":463,"x_min":192,"x_max":640,"o":"m 336 653 l 192 653 l 221 789 q 243 865 229 829 q 280 928 257 900 q 335 977 303 957 q 411 1007 367 997 l 397 942 q 351 922 369 938 q 321 885 332 906 q 303 841 310 864 q 293 800 297 818 l 367 800 l 336 653 m 565 653 l 421 653 l 450 789 q 472 865 458 829 q 509 928 486 900 q 564 977 532 957 q 640 1007 596 997 l 626 942 q 580 922 599 938 q 550 885 561 906 q 533 841 539 864 q 522 800 526 818 l 596 800 l 565 653 z "},"”":{"ha":463,"x_min":172,"x_max":622,"o":"m 478 997 l 622 997 l 593 861 q 570 785 585 821 q 533 722 556 750 q 478 673 510 693 q 401 643 446 653 l 415 708 q 462 728 443 713 q 492 765 481 744 q 509 809 503 786 q 519 850 515 832 l 446 850 l 478 997 m 249 997 l 393 997 l 364 861 q 341 785 356 821 q 303 722 326 750 q 249 673 281 693 q 172 643 217 653 l 186 708 q 233 728 214 713 q 263 765 251 744 q 280 809 274 786 q 290 850 286 832 l 217 850 l 249 997 z "},"•":{"ha":486,"x_min":121,"x_max":578,"o":"m 568 499 q 533 413 558 453 q 471 344 507 374 q 392 298 435 315 q 303 281 349 281 q 221 297 257 281 q 162 344 185 314 q 130 413 139 374 q 131 499 121 453 q 166 584 140 544 q 227 653 192 624 q 306 701 263 683 q 396 718 350 718 q 478 701 442 718 q 538 653 514 683 q 569 584 561 624 q 568 499 578 544 z "},"–":{"ha":772,"x_min":71,"x_max":865,"o":"m 843 333 l 71 333 l 93 435 l 865 435 l 843 333 z "},"—":{"ha":1389,"x_min":71,"x_max":1482,"o":"m 1460 333 l 71 333 l 93 435 l 1482 435 l 1460 333 z "},"˜":{"ha":463,"x_min":174,"x_max":681,"o":"m 681 1003 q 654 944 671 971 q 615 896 638 917 q 566 863 593 875 q 510 851 539 851 q 474 856 490 851 q 432 869 458 860 l 399 882 q 348 899 365 894 q 318 903 331 903 q 272 886 290 903 q 240 842 254 869 l 174 842 q 238 947 194 903 q 350 990 281 990 q 399 984 378 990 q 439 969 419 978 l 467 957 q 503 944 486 949 q 529 939 521 939 q 564 945 550 939 q 587 961 578 951 q 601 982 596 971 q 611 1003 607 993 l 681 1003 z "},"™":{"ha":1389,"x_min":258,"x_max":1467,"o":"m 713 914 l 536 914 l 432 425 l 331 425 l 435 914 l 258 914 l 276 997 l 731 997 l 713 914 m 1060 576 l 1311 997 l 1467 997 l 1344 425 l 1243 425 l 1342 890 l 1339 890 l 1061 425 l 992 425 l 911 890 l 908 890 l 810 425 l 708 425 l 831 997 l 986 997 l 1060 576 z "},"š":{"ha":694,"x_min":88,"x_max":767,"o":"m 536 890 l 656 1019 l 767 1019 l 588 824 l 458 824 l 363 1019 l 472 1019 l 536 890 m 613 519 q 616 558 617 536 q 601 598 615 579 q 556 629 588 617 q 467 642 525 642 q 428 638 453 642 q 376 624 403 635 q 328 593 350 614 q 300 539 307 572 q 300 502 296 517 q 318 477 304 488 q 356 458 332 467 q 413 442 379 450 l 528 411 q 671 338 635 383 q 692 219 707 293 q 648 118 679 163 q 572 43 617 74 q 470 -4 526 13 q 353 -21 414 -21 q 189 6 244 -21 q 110 73 133 33 q 88 156 88 113 q 94 233 89 200 l 213 233 q 210 186 210 213 q 226 138 211 160 q 274 100 240 115 q 374 85 308 85 q 438 92 407 85 q 495 113 469 99 q 540 148 521 126 q 565 200 558 169 q 546 264 575 243 q 443 304 517 285 l 308 339 q 199 399 236 358 q 178 515 163 440 q 222 619 190 575 q 299 691 254 663 q 395 733 343 719 q 501 747 447 747 q 648 717 599 747 q 717 647 697 686 q 735 570 736 607 q 731 519 733 533 l 613 519 z "},"›":{"ha":463,"x_min":154,"x_max":436,"o":"m 181 272 l 350 385 l 228 497 l 254 619 l 436 449 l 408 321 l 154 150 l 181 272 z "},"œ":{"ha":1311,"x_min":111,"x_max":1343,"o":"m 253 364 q 243 280 244 328 q 256 189 242 232 q 304 116 269 146 q 404 86 339 86 q 517 116 469 86 q 597 189 565 146 q 648 280 629 232 q 675 364 667 328 q 685 448 683 400 q 672 539 686 496 q 623 612 658 582 q 522 642 588 642 q 410 612 457 642 q 330 539 363 582 q 279 448 297 496 q 253 364 261 400 m 1292 228 q 1275 191 1288 215 q 1241 138 1263 167 q 1189 81 1219 110 q 1119 29 1158 51 q 1046 -4 1092 13 q 913 -21 1000 -21 q 772 12 835 -21 q 672 119 708 44 q 599 46 639 74 q 519 3 558 18 q 447 -15 481 -11 q 390 -19 413 -19 l 382 -19 q 238 14 294 -19 q 152 101 182 47 q 117 224 122 156 q 126 364 111 293 q 175 503 140 435 q 263 626 210 572 q 387 714 317 681 q 544 747 457 747 q 694 710 632 746 q 786 600 757 675 q 928 713 854 679 q 1099 747 1003 747 q 1230 717 1178 747 q 1309 632 1282 688 q 1340 498 1336 576 q 1322 324 1343 419 l 790 324 q 806 147 765 210 q 951 85 846 85 q 1032 99 994 85 q 1098 136 1069 114 q 1145 183 1126 158 q 1169 228 1164 207 l 1292 228 m 1215 421 q 1219 502 1222 463 q 1200 572 1217 542 q 1149 619 1183 601 q 1060 638 1115 638 q 977 619 1018 638 q 902 572 936 601 q 844 502 868 542 q 810 421 819 463 l 1215 421 z "},"":{"ha":694,"x_min":43,"x_max":793,"o":"m 536 890 l 656 1019 l 767 1019 l 588 824 l 458 824 l 363 1019 l 472 1019 l 536 890 m 228 101 l 674 101 l 651 0 l 43 0 l 64 96 l 614 625 l 210 625 l 231 726 l 793 726 l 772 626 l 228 101 z "},"ž":{"ha":694,"x_min":43,"x_max":793,"o":"m 536 890 l 656 1019 l 767 1019 l 588 824 l 458 824 l 363 1019 l 472 1019 l 536 890 m 228 101 l 674 101 l 651 0 l 43 0 l 64 96 l 614 625 l 210 625 l 231 726 l 793 726 l 772 626 l 228 101 z "},"Ÿ":{"ha":926,"x_min":232,"x_max":1119,"o":"m 875 1110 l 749 1110 l 779 1251 l 906 1251 l 875 1110 m 650 1110 l 524 1110 l 554 1251 l 681 1251 l 650 1110 m 531 0 l 396 0 l 481 401 l 232 997 l 389 997 l 572 518 l 961 997 l 1119 997 l 615 401 l 531 0 z "},"¡":{"ha":463,"x_min":107,"x_max":453,"o":"m 369 489 l 311 58 l 242 -271 l 107 -271 l 176 58 l 301 489 l 369 489 m 318 726 l 453 726 l 422 585 l 288 585 l 318 726 z "},"¢":{"ha":772,"x_min":115,"x_max":815,"o":"m 694 479 q 692 517 694 496 q 684 558 690 538 q 665 594 678 578 q 631 621 653 611 l 364 85 q 383 81 374 82 q 411 79 392 79 q 475 86 443 79 q 538 112 507 93 q 597 165 568 131 q 649 254 625 200 l 767 254 q 726 168 754 217 q 652 76 697 119 q 542 3 607 33 q 393 -26 478 -26 q 357 -24 376 -26 q 311 -17 338 -21 l 239 -160 l 182 -160 l 263 -1 q 153 122 190 38 q 143 340 115 206 q 297 642 185 538 q 571 747 408 747 q 629 739 610 747 l 692 865 l 746 865 l 682 726 q 724 706 700 721 q 770 661 749 690 q 803 588 792 632 q 808 479 815 543 l 694 479 m 581 638 q 564 641 572 640 q 540 642 556 642 q 453 624 496 642 q 375 570 411 607 q 310 476 339 533 q 265 340 282 419 q 264 201 250 265 q 318 108 278 136 l 581 638 z "},"£":{"ha":772,"x_min":68,"x_max":883,"o":"m 254 528 q 233 614 243 567 q 233 714 222 661 q 269 807 243 757 q 344 899 296 857 q 465 969 393 942 q 638 997 538 997 q 767 972 717 997 q 845 903 818 946 q 878 808 872 861 q 872 701 883 756 l 868 681 l 746 681 l 749 693 q 727 836 768 781 q 600 892 686 892 q 501 873 543 892 q 430 827 458 854 q 385 771 401 800 q 365 721 369 742 q 366 635 357 681 q 396 528 375 590 l 628 528 l 608 440 l 417 440 q 417 399 418 421 q 410 349 417 378 q 343 219 397 289 q 190 92 289 150 l 190 90 q 283 127 233 113 q 383 142 332 142 q 446 134 415 142 q 505 117 476 126 q 558 101 533 108 q 606 93 583 93 q 667 107 633 93 q 721 136 701 121 l 758 44 q 663 -6 707 11 q 568 -22 618 -22 q 503 -12 536 -22 q 436 9 471 -3 q 365 31 401 21 q 290 40 329 40 q 206 24 250 40 q 117 -15 161 8 l 68 81 q 172 155 131 117 q 239 228 213 193 q 277 293 265 264 q 293 340 289 322 q 295 395 299 367 q 288 440 292 424 l 139 440 l 158 528 l 254 528 z "},"¤":{"ha":772,"x_min":83,"x_max":897,"o":"m 251 488 q 249 392 240 438 q 283 313 258 347 q 348 259 308 279 q 438 239 388 239 q 535 259 488 239 q 623 313 583 279 q 690 392 663 347 q 729 488 718 438 q 730 581 739 536 q 695 659 721 625 q 631 713 669 693 q 542 733 592 733 q 444 713 492 733 q 358 659 397 693 q 290 581 318 625 q 251 488 261 536 m 897 771 l 804 696 q 837 601 832 656 q 831 488 842 546 q 790 376 818 429 q 717 278 761 322 l 775 200 l 699 138 l 639 218 q 532 160 590 179 q 417 142 474 142 q 310 160 360 142 q 225 218 260 179 l 132 138 l 83 200 l 175 278 q 142 376 147 322 q 150 488 138 429 q 190 601 161 546 q 263 696 218 656 l 203 771 l 283 838 l 346 760 q 450 813 393 794 q 563 831 507 831 q 667 813 618 831 q 749 760 717 794 l 844 838 l 897 771 z "},"¥":{"ha":772,"x_min":113,"x_max":971,"o":"m 172 533 l 386 533 l 207 956 l 346 956 l 503 546 l 832 956 l 971 956 l 614 533 l 829 533 l 813 454 l 544 454 l 518 336 l 786 336 l 769 257 l 501 257 l 447 0 l 325 0 l 379 257 l 113 257 l 129 336 l 396 336 l 422 454 l 156 454 l 172 533 z "},"¦":{"ha":361,"x_min":86,"x_max":439,"o":"m 338 972 l 439 972 l 335 486 l 233 486 l 338 972 m 190 278 l 292 278 l 188 -208 l 86 -208 l 190 278 z "},"§":{"ha":772,"x_min":99,"x_max":819,"o":"m 394 594 q 317 541 350 574 q 272 460 283 508 q 269 412 267 432 q 279 377 272 392 q 295 354 286 363 q 310 342 304 346 l 536 172 q 617 229 582 199 q 663 313 651 260 q 654 391 672 358 q 604 446 636 424 l 394 594 m 685 769 q 689 811 688 786 q 682 860 690 836 q 650 901 674 885 q 578 918 626 918 q 533 913 557 918 q 488 893 510 907 q 450 858 467 879 q 426 806 433 836 q 440 738 418 767 q 501 681 461 708 l 679 561 q 730 521 707 542 q 767 474 753 500 q 787 415 782 447 q 783 339 792 382 q 754 261 774 294 q 709 201 735 228 q 653 153 683 174 q 593 117 624 133 q 631 47 618 82 q 632 -42 643 11 q 589 -137 621 -96 q 515 -208 557 -179 q 424 -251 472 -236 q 332 -265 376 -265 q 227 -251 274 -265 q 150 -204 181 -236 q 109 -123 119 -172 q 114 -4 99 -74 l 236 -4 q 231 -47 232 -21 q 238 -99 229 -74 q 269 -142 246 -124 q 339 -160 292 -160 q 384 -156 358 -160 q 435 -140 410 -151 q 480 -105 460 -128 q 508 -44 500 -82 q 501 17 515 -8 q 456 65 488 42 l 206 260 q 168 301 181 278 q 151 348 156 325 q 147 392 146 371 q 151 429 147 414 q 178 507 161 474 q 219 566 196 540 q 273 611 243 592 q 336 649 303 631 q 300 717 308 688 q 301 788 292 747 q 332 868 310 826 q 391 944 354 910 q 481 1001 428 979 q 601 1024 533 1024 q 686 1013 643 1024 q 760 974 729 1001 q 806 896 792 946 q 803 769 819 846 l 685 769 z "},"¨":{"ha":463,"x_min":233,"x_max":615,"o":"m 585 839 l 458 839 l 489 981 l 615 981 l 585 839 m 360 839 l 233 839 l 264 981 l 390 981 l 360 839 z "},"©":{"ha":1024,"x_min":63,"x_max":1175,"o":"m 875 401 q 822 308 854 350 q 749 238 789 267 q 663 193 710 208 q 569 178 617 178 q 447 203 499 178 q 364 272 394 228 q 324 374 333 315 q 329 501 314 433 q 377 630 343 571 q 459 731 411 689 q 569 798 507 774 q 701 822 631 822 q 793 808 751 822 q 863 767 835 794 q 906 698 892 739 q 917 604 921 657 l 824 604 q 787 697 824 663 q 683 731 750 731 q 594 713 635 731 q 521 665 553 696 q 467 593 489 635 q 435 503 444 551 q 430 413 425 456 q 454 339 435 371 q 508 288 474 307 q 589 269 542 269 q 708 306 656 269 q 781 401 760 343 l 875 401 m 193 500 q 188 325 172 406 q 249 186 204 244 q 365 94 294 128 q 526 61 436 61 q 700 94 615 61 q 855 186 785 128 q 975 325 925 244 q 1046 500 1025 406 q 1049 673 1065 593 q 988 811 1033 753 q 872 903 943 869 q 713 936 801 936 q 538 903 622 936 q 383 811 453 869 q 263 673 313 753 q 193 500 213 593 m 508 -26 q 312 13 400 -26 q 165 123 224 53 q 85 290 107 193 q 88 500 63 386 q 174 709 111 613 q 325 875 238 806 q 518 984 413 944 q 732 1024 624 1024 q 927 984 839 1024 q 1073 875 1015 944 q 1153 709 1131 806 q 1151 500 1175 613 q 1063 290 1126 386 q 913 123 1000 193 q 720 13 825 53 q 508 -26 615 -26 z "},"ª":{"ha":514,"x_min":168,"x_max":629,"o":"m 336 635 q 391 642 364 635 q 441 663 418 650 q 480 694 464 676 q 500 733 496 713 l 513 792 q 501 785 508 789 q 480 779 494 782 q 441 772 465 776 q 379 764 417 768 q 347 759 364 763 q 313 749 329 756 q 286 732 297 743 q 271 704 275 721 q 278 653 264 672 q 336 635 292 635 m 601 569 q 580 565 590 567 q 556 563 569 563 q 515 568 529 563 q 493 583 500 574 q 485 606 486 593 q 488 633 485 618 q 415 586 460 610 q 301 563 369 563 q 202 597 236 563 q 179 689 168 632 q 192 726 183 704 q 222 769 201 749 q 276 807 242 790 q 365 831 311 824 l 490 844 q 516 856 504 847 q 535 897 528 865 q 519 935 540 919 q 442 951 499 951 q 383 943 406 951 q 347 923 361 935 q 327 899 333 911 q 318 878 321 886 l 243 878 q 323 990 263 957 q 471 1024 383 1024 q 513 1020 485 1024 q 569 1004 542 1017 q 613 967 596 992 q 621 901 629 943 l 568 654 q 588 628 563 628 q 600 628 593 628 q 615 631 607 629 l 601 569 z "},"«":{"ha":772,"x_min":203,"x_max":769,"o":"m 669 150 l 488 321 l 515 449 l 769 619 l 743 497 l 574 385 l 696 272 l 669 150 m 385 150 l 203 321 l 231 449 l 485 619 l 458 497 l 289 385 l 411 272 l 385 150 z "},"¬":{"ha":811,"x_min":147,"x_max":872,"o":"m 749 440 l 147 440 l 169 542 l 872 542 l 789 150 l 688 150 l 749 440 z "},"®":{"ha":1024,"x_min":63,"x_max":1175,"o":"m 626 536 q 683 538 656 536 q 732 550 710 540 q 771 580 754 560 q 794 635 788 600 q 792 680 800 663 q 768 707 785 697 q 728 720 751 717 q 682 724 706 724 l 557 724 l 517 536 l 626 536 m 444 196 l 353 196 l 482 801 l 713 801 q 865 760 821 801 q 889 629 908 719 q 863 559 881 589 q 819 509 844 529 q 762 478 793 489 q 697 463 731 467 l 813 196 l 710 196 l 606 458 l 500 458 l 444 196 m 193 500 q 188 325 172 406 q 249 186 204 244 q 365 94 294 128 q 526 61 436 61 q 700 94 615 61 q 855 186 785 128 q 975 325 925 244 q 1046 500 1025 406 q 1049 673 1065 593 q 988 811 1033 753 q 872 903 943 869 q 713 936 801 936 q 538 903 622 936 q 383 811 453 869 q 263 673 313 753 q 193 500 213 593 m 508 -26 q 312 13 400 -26 q 165 123 224 53 q 85 290 107 193 q 88 500 63 386 q 174 709 111 613 q 325 875 238 806 q 518 984 413 944 q 732 1024 624 1024 q 927 984 839 1024 q 1073 875 1015 944 q 1153 709 1131 806 q 1151 500 1175 613 q 1063 290 1126 386 q 913 123 1000 193 q 720 13 825 53 q 508 -26 615 -26 z "},"¯":{"ha":463,"x_min":199,"x_max":650,"o":"m 633 871 l 199 871 l 215 950 l 650 950 l 633 871 z "},"ˉ":{"ha":463,"x_min":199,"x_max":650,"o":"m 633 871 l 199 871 l 215 950 l 650 950 l 633 871 z "},"°":{"ha":556,"x_min":231,"x_max":654,"o":"m 644 774 q 613 693 636 731 q 556 628 589 656 q 482 586 522 601 q 399 571 442 571 q 322 586 356 571 q 267 628 288 601 q 238 693 246 656 q 239 774 231 731 q 272 854 249 817 q 328 919 294 892 q 401 961 361 946 q 485 976 442 976 q 562 961 528 976 q 617 919 596 946 q 647 854 639 892 q 644 774 654 817 m 472 917 q 417 905 444 917 q 367 873 390 893 q 328 827 344 853 q 306 774 311 801 q 306 720 300 746 q 326 674 311 694 q 363 642 340 654 q 413 631 385 631 q 467 642 440 631 q 517 674 494 654 q 556 720 540 694 q 578 774 572 746 q 578 827 583 801 q 559 873 574 853 q 522 905 544 893 q 472 917 500 917 z "},"±":{"ha":811,"x_min":54,"x_max":858,"o":"m 76 101 l 779 101 l 757 0 l 54 0 l 76 101 m 506 703 l 607 703 l 558 479 l 858 479 l 838 378 l 538 378 l 490 154 l 389 154 l 436 378 l 135 378 l 156 479 l 457 479 l 506 703 z "},"²":{"ha":463,"x_min":89,"x_max":628,"o":"m 189 767 q 238 879 204 838 q 310 942 271 921 q 389 970 350 964 q 453 976 428 976 q 530 965 496 976 q 587 930 564 953 q 619 874 610 907 q 619 801 628 842 q 592 732 611 761 q 544 680 572 703 q 483 639 517 657 q 411 604 449 621 l 343 572 q 259 522 288 546 q 211 475 231 499 l 550 475 l 532 390 l 89 390 q 163 535 113 482 q 282 622 214 589 l 375 668 q 430 694 406 682 q 473 722 454 707 q 503 756 492 736 q 522 804 515 775 l 524 813 q 524 842 526 826 q 510 869 521 857 q 478 888 499 881 q 425 896 458 896 q 353 881 381 896 q 308 844 325 865 q 284 801 292 824 q 272 767 276 779 l 189 767 z "},"³":{"ha":463,"x_min":125,"x_max":617,"o":"m 222 569 q 219 531 219 551 q 228 494 219 511 q 258 467 238 478 q 318 456 279 456 q 420 479 379 456 q 472 554 461 503 q 469 612 481 592 q 439 641 458 632 q 395 652 419 650 q 350 654 371 654 l 318 654 l 333 725 l 371 725 q 415 729 393 725 q 455 744 438 733 q 485 772 472 754 q 504 818 499 790 q 506 842 507 829 q 495 867 504 856 q 466 888 486 879 q 410 896 446 896 q 351 885 375 896 q 312 858 328 875 q 288 822 296 842 q 274 785 279 803 l 189 785 q 213 851 196 817 q 258 913 229 885 q 332 958 288 940 q 439 976 376 976 q 574 933 531 976 q 603 822 617 889 q 556 737 590 765 q 494 701 522 708 l 494 699 q 561 654 539 686 q 571 564 583 622 q 544 494 564 528 q 490 433 524 460 q 408 391 456 407 q 299 375 361 375 q 235 383 263 375 q 188 401 208 390 q 151 433 164 414 q 131 473 138 451 q 125 519 125 494 q 128 569 125 544 l 222 569 z "},"´":{"ha":463,"x_min":344,"x_max":660,"o":"m 438 824 l 344 824 l 510 1019 l 660 1019 l 438 824 z "},"µ":{"ha":803,"x_min":33,"x_max":835,"o":"m 775 -4 q 749 -7 775 -4 q 696 -10 724 -10 q 607 16 632 -10 q 586 110 582 42 q 501 18 553 56 q 365 -19 449 -19 q 276 8 310 -19 q 231 67 242 35 l 156 -287 l 33 -287 l 249 726 l 371 726 l 271 253 q 268 176 261 208 q 293 124 275 144 q 338 95 311 104 q 394 86 365 86 q 549 150 493 86 q 628 325 604 214 l 713 726 l 835 726 l 722 196 q 717 127 713 151 q 756 103 721 103 q 785 105 771 103 q 799 107 799 107 l 775 -4 l 775 -4 z "},"μ":{"ha":803,"x_min":33,"x_max":835,"o":"m 775 -4 q 749 -7 775 -4 q 696 -10 724 -10 q 607 16 632 -10 q 586 110 582 42 q 501 18 553 56 q 365 -19 449 -19 q 276 8 310 -19 q 231 67 242 35 l 156 -287 l 33 -287 l 249 726 l 371 726 l 271 253 q 268 176 261 208 q 293 124 275 144 q 338 95 311 104 q 394 86 365 86 q 549 150 493 86 q 628 325 604 214 l 713 726 l 835 726 l 722 196 q 717 127 713 151 q 756 103 721 103 q 785 105 771 103 q 799 107 799 107 l 775 -4 l 775 -4 z "},"¶":{"ha":746,"x_min":169,"x_max":903,"o":"m 424 478 q 306 497 357 478 q 224 551 256 517 q 181 633 192 586 q 181 733 169 679 q 311 934 210 871 q 558 997 413 997 l 903 997 l 639 -240 l 538 -240 l 783 914 l 618 914 l 372 -240 l 271 -240 l 424 478 z "},"·":{"ha":386,"x_min":175,"x_max":363,"o":"m 288 438 q 341 413 319 438 q 356 350 363 388 q 317 290 349 317 q 249 264 286 264 q 194 290 213 264 q 182 350 175 315 q 221 413 189 389 q 288 438 253 438 z "},"∙":{"ha":386,"x_min":175,"x_max":363,"o":"m 288 438 q 341 413 319 438 q 356 350 363 388 q 317 290 349 317 q 249 264 286 264 q 194 290 213 264 q 182 350 175 315 q 221 413 189 389 q 288 438 253 438 z "},"¸":{"ha":463,"x_min":3,"x_max":325,"o":"m 199 0 l 264 0 l 182 -86 q 203 -82 193 -83 q 226 -81 213 -81 q 281 -90 260 -81 q 311 -116 301 -100 q 323 -150 321 -132 q 321 -185 325 -168 q 258 -276 310 -239 q 129 -312 207 -312 q 59 -303 90 -312 q 3 -282 28 -293 l 38 -226 q 79 -242 61 -237 q 124 -247 97 -247 q 147 -245 133 -247 q 174 -237 161 -243 q 199 -219 188 -231 q 214 -189 210 -208 q 213 -162 218 -172 q 197 -145 207 -151 q 176 -137 188 -139 q 158 -135 165 -135 q 138 -137 149 -135 q 103 -146 126 -139 l 85 -119 l 199 0 z "},"¹":{"ha":463,"x_min":231,"x_max":515,"o":"m 231 801 l 243 865 q 311 872 282 868 q 363 888 340 876 q 403 919 385 899 q 438 976 421 940 l 515 976 l 392 390 l 293 390 l 381 801 l 231 801 z "},"º":{"ha":507,"x_min":189,"x_max":656,"o":"m 549 793 q 555 842 553 814 q 549 894 557 869 q 519 935 540 918 q 457 951 499 951 q 387 935 415 951 q 340 894 358 918 q 310 842 321 869 q 296 793 300 814 q 290 744 292 772 q 297 692 289 717 q 326 651 306 668 q 389 635 347 635 q 459 651 431 635 q 506 692 488 668 q 535 744 525 717 q 549 793 544 772 m 642 793 q 599 681 628 725 q 532 610 569 636 q 453 573 494 583 q 374 563 413 563 q 298 573 335 563 q 235 610 261 583 q 199 681 210 636 q 203 793 189 725 q 247 906 217 861 q 314 976 276 950 q 392 1013 351 1003 q 472 1024 433 1024 q 548 1013 511 1024 q 610 976 585 1003 q 646 906 636 950 q 642 793 656 861 z "},"»":{"ha":772,"x_min":167,"x_max":733,"o":"m 451 150 l 478 272 l 647 385 l 525 497 l 551 619 l 733 449 l 706 321 l 451 150 m 167 150 l 193 272 l 363 385 l 240 497 l 267 619 l 449 449 l 421 321 l 167 150 z "},"¼":{"ha":1158,"x_min":208,"x_max":1114,"o":"m 272 806 l 285 865 q 353 872 324 868 q 404 888 382 876 q 444 919 426 899 q 479 976 463 940 l 553 976 l 429 390 l 335 390 l 422 806 l 272 806 m 288 -26 l 208 -26 l 1035 976 l 1114 976 l 288 -26 m 968 471 l 965 471 l 713 211 l 913 211 l 968 471 m 628 214 l 993 586 l 1082 586 l 1001 211 l 1094 211 l 1078 131 l 985 131 l 957 0 l 868 0 l 896 131 l 610 131 l 628 214 z "},"½":{"ha":1158,"x_min":158,"x_max":1178,"o":"m 732 376 q 781 489 747 447 q 853 552 814 531 q 932 580 893 574 q 996 586 971 586 q 1130 540 1082 586 q 1161 411 1178 493 q 1133 342 1153 371 q 1087 290 1114 313 q 1026 249 1060 267 q 954 214 992 231 l 885 182 q 801 132 831 156 q 753 85 772 108 l 1092 85 l 1074 0 l 631 0 q 706 145 654 92 q 824 232 757 199 l 918 278 q 972 304 947 292 q 1015 331 996 317 q 1046 365 1033 346 q 1064 414 1058 385 l 1067 422 q 1067 451 1069 436 q 1053 478 1064 467 q 1021 498 1042 490 q 967 506 1000 506 q 895 490 922 506 q 851 454 868 475 q 827 411 835 433 q 815 376 819 389 l 732 376 m 231 801 l 243 865 q 311 872 282 868 q 363 888 340 876 q 403 919 385 899 q 438 976 421 940 l 515 976 l 392 390 l 293 390 l 381 801 l 231 801 m 238 -26 l 158 -26 l 985 976 l 1064 976 l 238 -26 z "},"¾":{"ha":1158,"x_min":181,"x_max":1196,"o":"m 278 569 q 275 531 275 551 q 284 494 275 511 q 314 467 293 478 q 374 456 335 456 q 476 479 435 456 q 528 554 517 503 q 525 612 536 592 q 494 641 514 632 q 451 652 475 650 q 406 654 426 654 l 374 654 l 389 725 l 426 725 q 471 729 449 725 q 510 744 493 733 q 541 772 528 754 q 560 818 554 790 q 561 842 563 829 q 551 867 560 856 q 522 888 542 879 q 465 896 501 896 q 407 885 431 896 q 367 858 383 875 q 343 822 351 842 q 329 785 335 803 l 244 785 q 268 851 251 817 q 314 913 285 885 q 388 958 343 940 q 494 976 432 976 q 629 933 586 976 q 658 822 672 889 q 612 737 646 765 q 550 701 578 708 l 550 699 q 617 654 594 686 q 626 564 639 622 q 599 494 619 528 q 545 433 579 460 q 464 391 511 407 q 354 375 417 375 q 291 383 318 375 q 243 401 264 390 q 206 433 219 414 q 187 473 193 451 q 181 519 181 494 q 183 569 181 544 l 278 569 m 369 -26 l 290 -26 l 1117 976 l 1196 976 l 369 -26 m 788 211 l 988 211 l 1043 471 l 1040 471 l 788 211 m 703 214 l 1068 586 l 1157 586 l 1076 211 l 1169 211 l 1153 131 l 1060 131 l 1032 0 l 943 0 l 971 131 l 685 131 l 703 214 z "},"¿":{"ha":849,"x_min":111,"x_max":742,"o":"m 524 729 l 658 729 l 628 588 l 493 588 l 524 729 m 742 46 q 723 -24 733 10 q 694 -91 713 -58 q 649 -155 676 -124 q 576 -215 621 -186 q 472 -263 528 -247 q 361 -279 417 -279 q 253 -262 303 -279 q 171 -210 204 -244 q 124 -124 138 -175 q 125 -7 111 -74 q 145 55 132 28 q 179 108 158 82 q 231 162 200 135 q 304 222 261 189 q 371 276 343 253 q 419 326 399 300 q 452 383 439 351 q 476 463 465 415 l 479 476 l 601 476 q 574 377 589 417 q 536 306 558 338 q 482 244 514 274 q 406 178 450 215 q 338 119 364 142 q 294 76 311 96 q 269 35 278 56 q 254 -15 260 14 q 251 -65 250 -37 q 265 -116 251 -92 q 308 -157 279 -140 q 388 -174 338 -174 q 497 -148 454 -174 q 566 -87 540 -122 q 603 -14 592 -51 q 619 46 615 24 l 742 46 z "},"À":{"ha":926,"x_min":19,"x_max":908,"o":"m 525 1290 l 675 1290 l 757 1094 l 664 1094 l 525 1290 m 701 410 l 647 849 l 644 849 l 392 410 l 701 410 m 324 290 l 158 0 l 19 0 l 607 997 l 760 997 l 908 0 l 761 0 l 724 290 l 324 290 z "},"Á":{"ha":926,"x_min":19,"x_max":949,"o":"m 726 1094 l 633 1094 l 799 1290 l 949 1290 l 726 1094 m 701 410 l 647 849 l 644 849 l 392 410 l 701 410 m 324 290 l 158 0 l 19 0 l 607 997 l 760 997 l 908 0 l 761 0 l 724 290 l 324 290 z "},"Â":{"ha":926,"x_min":19,"x_max":908,"o":"m 603 1094 l 493 1094 l 672 1290 l 801 1290 l 897 1094 l 786 1094 l 722 1224 l 603 1094 m 701 410 l 647 849 l 644 849 l 392 410 l 701 410 m 324 290 l 158 0 l 19 0 l 607 997 l 760 997 l 908 0 l 761 0 l 724 290 l 324 290 z "},"Ã":{"ha":926,"x_min":19,"x_max":971,"o":"m 971 1274 q 905 1167 950 1211 q 800 1122 860 1122 q 765 1126 781 1122 q 722 1140 749 1131 l 688 1153 q 638 1169 654 1165 q 608 1174 621 1174 q 563 1157 581 1174 q 529 1113 544 1140 l 463 1113 q 490 1170 474 1143 q 527 1217 506 1197 q 576 1249 549 1238 q 639 1261 604 1261 q 688 1255 667 1261 q 729 1240 710 1249 l 757 1228 q 792 1215 775 1219 q 818 1210 810 1210 q 853 1216 839 1210 q 876 1232 867 1222 q 892 1253 886 1242 q 901 1274 897 1264 l 971 1274 m 701 410 l 647 849 l 644 849 l 392 410 l 701 410 m 324 290 l 158 0 l 19 0 l 607 997 l 760 997 l 908 0 l 761 0 l 724 290 l 324 290 z "},"Ä":{"ha":926,"x_min":19,"x_max":908,"o":"m 875 1110 l 749 1110 l 779 1251 l 906 1251 l 875 1110 m 650 1110 l 524 1110 l 554 1251 l 681 1251 l 650 1110 m 701 410 l 647 849 l 644 849 l 392 410 l 701 410 m 324 290 l 158 0 l 19 0 l 607 997 l 760 997 l 908 0 l 761 0 l 724 290 l 324 290 z "},"Å":{"ha":926,"x_min":19,"x_max":908,"o":"m 639 1165 q 649 1114 632 1135 q 696 1093 665 1093 q 751 1114 726 1093 q 783 1165 776 1135 q 774 1217 790 1196 q 726 1238 757 1238 q 671 1217 696 1238 q 639 1165 646 1196 m 739 1293 q 823 1257 794 1293 q 839 1165 851 1221 q 784 1074 828 1110 q 685 1038 740 1038 q 601 1074 629 1038 q 583 1165 572 1110 q 640 1257 596 1221 q 739 1293 683 1293 m 701 410 l 647 849 l 644 849 l 392 410 l 701 410 m 324 290 l 158 0 l 19 0 l 607 997 l 760 997 l 908 0 l 761 0 l 724 290 l 324 290 z "},"Æ":{"ha":1389,"x_min":11,"x_max":1524,"o":"m 821 878 l 686 878 l 403 410 l 722 410 l 821 878 m 157 0 l 11 0 l 629 997 l 1524 997 l 1497 878 l 956 878 l 892 572 l 1386 572 l 1360 453 l 865 453 l 794 119 l 1346 119 l 1321 0 l 635 0 l 696 290 l 328 290 l 157 0 z "},"Ç":{"ha":1003,"x_min":139,"x_max":1090,"o":"m 343 -226 q 385 -242 367 -237 q 429 -247 403 -247 q 453 -245 439 -247 q 480 -237 467 -243 q 504 -219 493 -231 q 519 -189 515 -208 q 518 -162 524 -172 q 503 -145 513 -151 q 482 -137 493 -139 q 464 -135 471 -135 q 443 -137 454 -135 q 408 -146 432 -139 l 390 -119 l 481 -24 q 330 10 400 -21 q 214 103 260 40 q 153 266 168 167 q 168 504 139 365 q 245 715 193 619 q 372 878 297 810 q 542 985 447 947 q 744 1024 636 1024 q 908 996 840 1024 q 1017 923 975 968 q 1074 819 1058 878 q 1085 697 1090 760 l 954 697 q 931 803 954 763 q 872 867 907 844 q 795 897 836 889 q 718 904 754 904 q 585 879 650 904 q 466 805 521 854 q 370 681 411 756 q 308 508 329 607 q 290 344 289 421 q 317 213 290 268 q 401 125 344 157 q 550 93 457 93 q 628 103 583 93 q 719 143 672 114 q 812 226 767 172 q 893 367 857 279 l 1024 367 q 915 169 979 244 q 783 53 850 94 q 651 -5 715 11 q 546 -24 588 -21 l 488 -86 q 508 -82 499 -83 q 532 -81 518 -81 q 586 -90 565 -81 q 617 -116 607 -100 q 628 -150 626 -132 q 626 -185 631 -168 q 564 -276 615 -239 q 435 -312 513 -312 q 365 -303 396 -312 q 308 -282 333 -293 l 343 -226 z "},"È":{"ha":926,"x_min":119,"x_max":1058,"o":"m 525 1290 l 675 1290 l 757 1094 l 664 1094 l 525 1290 m 856 0 l 119 0 l 332 997 l 1058 997 l 1032 878 l 440 878 l 376 572 l 922 572 l 896 453 l 350 453 l 279 119 l 881 119 l 856 0 z "},"É":{"ha":926,"x_min":119,"x_max":1058,"o":"m 726 1094 l 633 1094 l 799 1290 l 949 1290 l 726 1094 m 856 0 l 119 0 l 332 997 l 1058 997 l 1032 878 l 440 878 l 376 572 l 922 572 l 896 453 l 350 453 l 279 119 l 881 119 l 856 0 z "},"Ê":{"ha":926,"x_min":119,"x_max":1058,"o":"m 603 1094 l 493 1094 l 672 1290 l 801 1290 l 897 1094 l 786 1094 l 722 1224 l 603 1094 m 856 0 l 119 0 l 332 997 l 1058 997 l 1032 878 l 440 878 l 376 572 l 922 572 l 896 453 l 350 453 l 279 119 l 881 119 l 856 0 z "},"Ë":{"ha":926,"x_min":119,"x_max":1058,"o":"m 875 1110 l 749 1110 l 779 1251 l 906 1251 l 875 1110 m 650 1110 l 524 1110 l 554 1251 l 681 1251 l 650 1110 m 856 0 l 119 0 l 332 997 l 1058 997 l 1032 878 l 440 878 l 376 572 l 922 572 l 896 453 l 350 453 l 279 119 l 881 119 l 856 0 z "},"Ì":{"ha":386,"x_min":126,"x_max":488,"o":"m 256 1290 l 406 1290 l 488 1094 l 394 1094 l 256 1290 m 261 0 l 126 0 l 339 997 l 474 997 l 261 0 z "},"Í":{"ha":386,"x_min":126,"x_max":679,"o":"m 457 1094 l 364 1094 l 529 1290 l 679 1290 l 457 1094 m 261 0 l 126 0 l 339 997 l 474 997 l 261 0 z "},"Î":{"ha":386,"x_min":126,"x_max":628,"o":"m 333 1094 l 224 1094 l 403 1290 l 532 1290 l 628 1094 l 517 1094 l 453 1224 l 333 1094 m 261 0 l 126 0 l 339 997 l 474 997 l 261 0 z "},"Ï":{"ha":386,"x_min":126,"x_max":636,"o":"m 606 1110 l 479 1110 l 510 1251 l 636 1251 l 606 1110 m 381 1110 l 254 1110 l 285 1251 l 411 1251 l 381 1110 m 261 0 l 126 0 l 339 997 l 474 997 l 261 0 z "},"Ð":{"ha":1003,"x_min":96,"x_max":1067,"o":"m 122 572 l 235 572 l 325 997 l 729 997 q 897 962 826 997 q 1007 863 967 926 q 1057 710 1047 799 q 1044 513 1067 621 q 1027 445 1040 492 q 988 342 1014 399 q 923 224 963 285 q 825 114 883 164 q 690 32 767 64 q 511 0 613 0 l 113 0 l 208 453 l 96 453 l 122 572 m 610 453 l 343 453 l 272 115 l 533 115 q 765 215 665 115 q 904 504 864 314 q 884 788 944 693 q 686 882 824 882 l 435 882 l 369 572 l 636 572 l 610 453 z "},"Ñ":{"ha":1003,"x_min":106,"x_max":1110,"o":"m 1024 1274 q 958 1167 1003 1211 q 853 1122 913 1122 q 817 1126 833 1122 q 775 1140 801 1131 l 740 1153 q 690 1169 707 1165 q 661 1174 674 1174 q 615 1157 633 1174 q 582 1113 597 1140 l 515 1113 q 542 1170 526 1143 q 580 1217 558 1197 q 629 1249 601 1238 q 692 1261 657 1261 q 741 1255 719 1261 q 782 1240 763 1249 l 810 1228 q 845 1215 828 1219 q 871 1210 863 1210 q 906 1216 892 1210 q 929 1232 919 1222 q 944 1253 939 1242 q 954 1274 950 1264 l 1024 1274 m 979 997 l 1110 997 l 897 0 l 746 0 l 410 806 l 407 806 l 236 0 l 106 0 l 318 997 l 478 997 l 804 192 l 807 192 l 979 997 z "},"Ò":{"ha":1081,"x_min":143,"x_max":1149,"o":"m 603 1290 l 753 1290 l 835 1094 l 742 1094 l 603 1290 m 1132 499 q 1098 385 1121 444 q 1040 267 1075 325 q 956 156 1004 208 q 844 62 907 103 q 705 -3 782 21 q 535 -26 628 -26 q 374 -3 442 -26 q 262 62 307 21 q 190 156 217 103 q 153 267 164 208 q 146 385 143 325 q 160 499 149 444 q 194 613 171 553 q 252 731 217 672 q 336 842 288 789 q 448 935 385 894 q 588 1000 511 976 q 758 1024 665 1024 q 919 1000 851 1024 q 1031 935 986 976 q 1102 842 1076 894 q 1138 731 1128 789 q 1146 613 1149 672 q 1132 499 1143 553 m 993 499 q 1003 660 1011 586 q 963 789 996 735 q 871 874 929 843 q 732 904 813 904 q 579 874 650 904 q 452 789 508 843 q 356 660 396 735 q 299 499 317 586 q 288 337 279 411 q 329 208 296 263 q 420 124 363 154 q 560 93 478 93 q 711 124 640 93 q 838 208 782 154 q 934 337 894 263 q 993 499 974 411 z "},"Ó":{"ha":1081,"x_min":143,"x_max":1149,"o":"m 804 1094 l 711 1094 l 876 1290 l 1026 1290 l 804 1094 m 1132 499 q 1098 385 1121 444 q 1040 267 1075 325 q 956 156 1004 208 q 844 62 907 103 q 705 -3 782 21 q 535 -26 628 -26 q 374 -3 442 -26 q 262 62 307 21 q 190 156 217 103 q 153 267 164 208 q 146 385 143 325 q 160 499 149 444 q 194 613 171 553 q 252 731 217 672 q 336 842 288 789 q 448 935 385 894 q 588 1000 511 976 q 758 1024 665 1024 q 919 1000 851 1024 q 1031 935 986 976 q 1102 842 1076 894 q 1138 731 1128 789 q 1146 613 1149 672 q 1132 499 1143 553 m 993 499 q 1003 660 1011 586 q 963 789 996 735 q 871 874 929 843 q 732 904 813 904 q 579 874 650 904 q 452 789 508 843 q 356 660 396 735 q 299 499 317 586 q 288 337 279 411 q 329 208 296 263 q 420 124 363 154 q 560 93 478 93 q 711 124 640 93 q 838 208 782 154 q 934 337 894 263 q 993 499 974 411 z "},"Ô":{"ha":1081,"x_min":143,"x_max":1149,"o":"m 681 1094 l 571 1094 l 750 1290 l 879 1290 l 975 1094 l 864 1094 l 800 1224 l 681 1094 m 1132 499 q 1098 385 1121 444 q 1040 267 1075 325 q 956 156 1004 208 q 844 62 907 103 q 705 -3 782 21 q 535 -26 628 -26 q 374 -3 442 -26 q 262 62 307 21 q 190 156 217 103 q 153 267 164 208 q 146 385 143 325 q 160 499 149 444 q 194 613 171 553 q 252 731 217 672 q 336 842 288 789 q 448 935 385 894 q 588 1000 511 976 q 758 1024 665 1024 q 919 1000 851 1024 q 1031 935 986 976 q 1102 842 1076 894 q 1138 731 1128 789 q 1146 613 1149 672 q 1132 499 1143 553 m 993 499 q 1003 660 1011 586 q 963 789 996 735 q 871 874 929 843 q 732 904 813 904 q 579 874 650 904 q 452 789 508 843 q 356 660 396 735 q 299 499 317 586 q 288 337 279 411 q 329 208 296 263 q 420 124 363 154 q 560 93 478 93 q 711 124 640 93 q 838 208 782 154 q 934 337 894 263 q 993 499 974 411 z "},"Õ":{"ha":1081,"x_min":143,"x_max":1149,"o":"m 1049 1274 q 983 1167 1028 1211 q 878 1122 938 1122 q 842 1126 858 1122 q 800 1140 826 1131 l 765 1153 q 715 1169 732 1165 q 686 1174 699 1174 q 640 1157 658 1174 q 607 1113 622 1140 l 540 1113 q 567 1170 551 1143 q 605 1217 583 1197 q 654 1249 626 1238 q 717 1261 682 1261 q 766 1255 744 1261 q 807 1240 788 1249 l 835 1228 q 870 1215 853 1219 q 896 1210 888 1210 q 931 1216 917 1210 q 954 1232 944 1222 q 969 1253 964 1242 q 979 1274 975 1264 l 1049 1274 m 1132 499 q 1098 385 1121 444 q 1040 267 1075 325 q 956 156 1004 208 q 844 62 907 103 q 705 -3 782 21 q 535 -26 628 -26 q 374 -3 442 -26 q 262 62 307 21 q 190 156 217 103 q 153 267 164 208 q 146 385 143 325 q 160 499 149 444 q 194 613 171 553 q 252 731 217 672 q 336 842 288 789 q 448 935 385 894 q 588 1000 511 976 q 758 1024 665 1024 q 919 1000 851 1024 q 1031 935 986 976 q 1102 842 1076 894 q 1138 731 1128 789 q 1146 613 1149 672 q 1132 499 1143 553 m 993 499 q 1003 660 1011 586 q 963 789 996 735 q 871 874 929 843 q 732 904 813 904 q 579 874 650 904 q 452 789 508 843 q 356 660 396 735 q 299 499 317 586 q 288 337 279 411 q 329 208 296 263 q 420 124 363 154 q 560 93 478 93 q 711 124 640 93 q 838 208 782 154 q 934 337 894 263 q 993 499 974 411 z "},"Ö":{"ha":1081,"x_min":143,"x_max":1149,"o":"m 953 1110 l 826 1110 l 857 1251 l 983 1251 l 953 1110 m 728 1110 l 601 1110 l 632 1251 l 758 1251 l 728 1110 m 1132 499 q 1098 385 1121 444 q 1040 267 1075 325 q 956 156 1004 208 q 844 62 907 103 q 705 -3 782 21 q 535 -26 628 -26 q 374 -3 442 -26 q 262 62 307 21 q 190 156 217 103 q 153 267 164 208 q 146 385 143 325 q 160 499 149 444 q 194 613 171 553 q 252 731 217 672 q 336 842 288 789 q 448 935 385 894 q 588 1000 511 976 q 758 1024 665 1024 q 919 1000 851 1024 q 1031 935 986 976 q 1102 842 1076 894 q 1138 731 1128 789 q 1146 613 1149 672 q 1132 499 1143 553 m 993 499 q 1003 660 1011 586 q 963 789 996 735 q 871 874 929 843 q 732 904 813 904 q 579 874 650 904 q 452 789 508 843 q 356 660 396 735 q 299 499 317 586 q 288 337 279 411 q 329 208 296 263 q 420 124 363 154 q 560 93 478 93 q 711 124 640 93 q 838 208 782 154 q 934 337 894 263 q 993 499 974 411 z "},"×":{"ha":811,"x_min":69,"x_max":892,"o":"m 189 632 l 276 703 l 496 424 l 836 703 l 892 632 l 553 351 l 772 71 l 686 0 l 465 279 l 125 0 l 69 71 l 410 351 l 189 632 z "},"Ø":{"ha":1081,"x_min":60,"x_max":1236,"o":"m 1094 856 q 1129 770 1117 815 q 1145 679 1142 725 q 1145 587 1149 633 q 1132 499 1142 540 q 1098 385 1121 444 q 1040 267 1075 325 q 956 156 1004 208 q 844 62 907 103 q 705 -3 782 21 q 535 -26 628 -26 q 351 7 425 -26 q 232 94 276 40 l 96 -26 l 60 13 l 201 138 q 165 223 178 178 q 147 315 151 268 q 147 409 143 363 q 160 499 151 456 q 194 613 171 553 q 252 731 217 672 q 336 842 288 789 q 448 935 385 894 q 588 1000 511 976 q 758 1024 665 1024 q 945 990 871 1024 q 1064 900 1019 956 l 1203 1024 l 1236 982 l 1094 856 m 954 803 q 865 878 921 851 q 732 904 808 904 q 579 874 650 904 q 452 789 508 843 q 356 660 396 735 q 299 499 317 586 q 314 238 267 346 l 954 803 m 342 192 q 431 119 376 144 q 560 93 485 93 q 711 124 640 93 q 838 208 782 154 q 934 337 894 263 q 993 499 974 411 q 1006 639 1010 574 q 979 754 1003 704 l 342 192 z "},"Ù":{"ha":1003,"x_min":165,"x_max":1107,"o":"m 564 1290 l 714 1290 l 796 1094 l 703 1094 l 564 1290 m 1107 997 l 969 350 q 914 205 953 274 q 815 85 875 136 q 672 3 754 33 q 488 -26 590 -26 q 321 3 388 -26 q 218 83 254 33 q 174 198 182 133 q 181 332 165 263 l 322 997 l 457 997 l 324 369 q 317 235 306 288 q 357 150 328 182 q 428 106 386 118 q 517 93 471 93 q 613 106 563 93 q 706 149 663 118 q 785 232 750 179 q 838 367 821 285 l 972 997 l 1107 997 z "},"Ú":{"ha":1003,"x_min":165,"x_max":1107,"o":"m 765 1094 l 672 1094 l 838 1290 l 988 1290 l 765 1094 m 1107 997 l 969 350 q 914 205 953 274 q 815 85 875 136 q 672 3 754 33 q 488 -26 590 -26 q 321 3 388 -26 q 218 83 254 33 q 174 198 182 133 q 181 332 165 263 l 322 997 l 457 997 l 324 369 q 317 235 306 288 q 357 150 328 182 q 428 106 386 118 q 517 93 471 93 q 613 106 563 93 q 706 149 663 118 q 785 232 750 179 q 838 367 821 285 l 972 997 l 1107 997 z "},"Û":{"ha":1003,"x_min":165,"x_max":1107,"o":"m 642 1094 l 532 1094 l 711 1290 l 840 1290 l 936 1094 l 825 1094 l 761 1224 l 642 1094 m 1107 997 l 969 350 q 914 205 953 274 q 815 85 875 136 q 672 3 754 33 q 488 -26 590 -26 q 321 3 388 -26 q 218 83 254 33 q 174 198 182 133 q 181 332 165 263 l 322 997 l 457 997 l 324 369 q 317 235 306 288 q 357 150 328 182 q 428 106 386 118 q 517 93 471 93 q 613 106 563 93 q 706 149 663 118 q 785 232 750 179 q 838 367 821 285 l 972 997 l 1107 997 z "},"Ü":{"ha":1003,"x_min":165,"x_max":1107,"o":"m 914 1110 l 788 1110 l 818 1251 l 944 1251 l 914 1110 m 689 1110 l 563 1110 l 593 1251 l 719 1251 l 689 1110 m 1107 997 l 969 350 q 914 205 953 274 q 815 85 875 136 q 672 3 754 33 q 488 -26 590 -26 q 321 3 388 -26 q 218 83 254 33 q 174 198 182 133 q 181 332 165 263 l 322 997 l 457 997 l 324 369 q 317 235 306 288 q 357 150 328 182 q 428 106 386 118 q 517 93 471 93 q 613 106 563 93 q 706 149 663 118 q 785 232 750 179 q 838 367 821 285 l 972 997 l 1107 997 z "},"Ý":{"ha":926,"x_min":232,"x_max":1119,"o":"m 726 1094 l 633 1094 l 799 1290 l 949 1290 l 726 1094 m 531 0 l 396 0 l 481 401 l 232 997 l 389 997 l 572 518 l 961 997 l 1119 997 l 615 401 l 531 0 z "},"Þ":{"ha":926,"x_min":119,"x_max":993,"o":"m 332 997 l 467 997 l 431 832 l 744 832 q 864 810 814 832 q 944 751 914 789 q 984 663 975 714 q 981 551 993 611 q 942 447 969 499 q 872 351 915 394 q 765 282 828 308 q 622 256 703 256 l 308 256 l 254 0 l 119 0 l 332 997 m 333 371 l 601 371 q 686 380 647 371 q 756 410 725 389 q 809 465 788 431 q 842 550 831 500 q 844 629 851 597 q 813 681 836 661 q 756 708 790 700 q 681 717 722 717 l 407 717 l 333 371 z "},"ß":{"ha":849,"x_min":93,"x_max":932,"o":"m 250 739 q 294 849 263 799 q 374 935 326 899 q 487 991 422 971 q 629 1011 551 1011 q 858 943 785 1011 q 907 761 932 875 q 876 675 896 711 q 832 615 856 639 q 786 578 808 592 q 750 556 764 564 q 811 520 786 544 q 850 464 836 496 q 867 397 864 432 q 864 331 869 361 q 803 172 844 239 q 706 63 763 106 q 582 -1 650 19 q 439 -21 514 -21 q 395 -17 408 -21 q 367 -11 382 -14 l 389 93 q 450 89 419 89 q 635 140 564 89 q 729 297 707 192 q 733 389 742 351 q 697 449 724 426 q 629 482 671 472 q 535 492 588 492 q 479 486 503 492 l 503 596 q 519 594 513 594 q 535 593 526 593 q 642 606 597 593 q 715 641 686 619 q 760 691 744 663 q 783 750 776 719 q 754 861 797 817 q 606 906 711 906 q 506 892 547 906 q 436 851 464 878 q 392 789 408 825 q 365 708 375 753 l 215 0 l 93 0 l 250 739 z "},"à":{"ha":772,"x_min":81,"x_max":781,"o":"m 392 1019 l 542 1019 l 624 824 l 531 824 l 392 1019 m 613 371 q 592 360 604 365 q 556 349 579 354 q 497 338 533 344 q 401 325 460 332 q 349 316 378 322 q 295 297 321 310 q 249 263 269 285 q 221 207 228 242 q 232 114 208 147 q 325 81 256 81 q 411 94 368 81 q 491 130 454 107 q 553 184 528 153 q 586 251 579 215 l 613 371 m 193 506 q 241 617 210 571 q 317 692 272 663 q 420 734 363 721 q 544 747 478 747 q 584 745 558 747 q 638 736 610 743 q 694 716 667 729 q 743 680 722 703 q 772 624 764 657 q 771 544 781 590 l 682 126 q 714 83 674 83 q 733 85 722 83 q 756 89 744 86 l 736 0 q 703 -9 719 -4 q 667 -14 688 -14 q 603 -4 626 -14 q 570 21 581 6 q 559 56 560 36 q 561 97 558 76 q 511 57 539 78 q 449 19 483 36 q 370 -10 414 1 q 274 -21 326 -21 q 185 -6 224 -21 q 122 38 146 10 q 89 103 97 65 q 90 189 81 142 q 108 247 94 211 q 152 317 122 282 q 232 379 182 351 q 360 417 282 407 l 567 442 q 590 447 578 443 q 613 459 601 450 q 633 484 624 468 q 649 528 643 500 q 503 646 672 646 q 416 632 450 646 q 360 597 382 618 q 326 551 338 575 q 306 506 314 526 l 193 506 z "},"á":{"ha":772,"x_min":81,"x_max":815,"o":"m 593 824 l 500 824 l 665 1019 l 815 1019 l 593 824 m 613 371 q 592 360 604 365 q 556 349 579 354 q 497 338 533 344 q 401 325 460 332 q 349 316 378 322 q 295 297 321 310 q 249 263 269 285 q 221 207 228 242 q 232 114 208 147 q 325 81 256 81 q 411 94 368 81 q 491 130 454 107 q 553 184 528 153 q 586 251 579 215 l 613 371 m 193 506 q 241 617 210 571 q 317 692 272 663 q 420 734 363 721 q 544 747 478 747 q 584 745 558 747 q 638 736 610 743 q 694 716 667 729 q 743 680 722 703 q 772 624 764 657 q 771 544 781 590 l 682 126 q 714 83 674 83 q 733 85 722 83 q 756 89 744 86 l 736 0 q 703 -9 719 -4 q 667 -14 688 -14 q 603 -4 626 -14 q 570 21 581 6 q 559 56 560 36 q 561 97 558 76 q 511 57 539 78 q 449 19 483 36 q 370 -10 414 1 q 274 -21 326 -21 q 185 -6 224 -21 q 122 38 146 10 q 89 103 97 65 q 90 189 81 142 q 108 247 94 211 q 152 317 122 282 q 232 379 182 351 q 360 417 282 407 l 567 442 q 590 447 578 443 q 613 459 601 450 q 633 484 624 468 q 649 528 643 500 q 503 646 672 646 q 416 632 450 646 q 360 597 382 618 q 326 551 338 575 q 306 506 314 526 l 193 506 z "},"â":{"ha":772,"x_min":81,"x_max":781,"o":"m 469 824 l 360 824 l 539 1019 l 668 1019 l 764 824 l 653 824 l 589 953 l 469 824 m 613 371 q 592 360 604 365 q 556 349 579 354 q 497 338 533 344 q 401 325 460 332 q 349 316 378 322 q 295 297 321 310 q 249 263 269 285 q 221 207 228 242 q 232 114 208 147 q 325 81 256 81 q 411 94 368 81 q 491 130 454 107 q 553 184 528 153 q 586 251 579 215 l 613 371 m 193 506 q 241 617 210 571 q 317 692 272 663 q 420 734 363 721 q 544 747 478 747 q 584 745 558 747 q 638 736 610 743 q 694 716 667 729 q 743 680 722 703 q 772 624 764 657 q 771 544 781 590 l 682 126 q 714 83 674 83 q 733 85 722 83 q 756 89 744 86 l 736 0 q 703 -9 719 -4 q 667 -14 688 -14 q 603 -4 626 -14 q 570 21 581 6 q 559 56 560 36 q 561 97 558 76 q 511 57 539 78 q 449 19 483 36 q 370 -10 414 1 q 274 -21 326 -21 q 185 -6 224 -21 q 122 38 146 10 q 89 103 97 65 q 90 189 81 142 q 108 247 94 211 q 152 317 122 282 q 232 379 182 351 q 360 417 282 407 l 567 442 q 590 447 578 443 q 613 459 601 450 q 633 484 624 468 q 649 528 643 500 q 503 646 672 646 q 416 632 450 646 q 360 597 382 618 q 326 551 338 575 q 306 506 314 526 l 193 506 z "},"ã":{"ha":772,"x_min":81,"x_max":822,"o":"m 822 1003 q 796 944 813 971 q 757 896 779 917 q 708 863 735 875 q 651 851 681 851 q 616 856 632 851 q 574 869 600 860 l 540 882 q 490 899 507 894 q 460 903 472 903 q 414 886 432 903 q 382 842 396 869 l 315 842 q 379 947 336 903 q 492 990 422 990 q 540 984 519 990 q 581 969 561 978 l 608 957 q 645 944 628 949 q 671 939 663 939 q 706 945 692 939 q 728 961 719 951 q 743 982 738 971 q 753 1003 749 993 l 822 1003 m 613 371 q 592 360 604 365 q 556 349 579 354 q 497 338 533 344 q 401 325 460 332 q 349 316 378 322 q 295 297 321 310 q 249 263 269 285 q 221 207 228 242 q 232 114 208 147 q 325 81 256 81 q 411 94 368 81 q 491 130 454 107 q 553 184 528 153 q 586 251 579 215 l 613 371 m 193 506 q 241 617 210 571 q 317 692 272 663 q 420 734 363 721 q 544 747 478 747 q 584 745 558 747 q 638 736 610 743 q 694 716 667 729 q 743 680 722 703 q 772 624 764 657 q 771 544 781 590 l 682 126 q 714 83 674 83 q 733 85 722 83 q 756 89 744 86 l 736 0 q 703 -9 719 -4 q 667 -14 688 -14 q 603 -4 626 -14 q 570 21 581 6 q 559 56 560 36 q 561 97 558 76 q 511 57 539 78 q 449 19 483 36 q 370 -10 414 1 q 274 -21 326 -21 q 185 -6 224 -21 q 122 38 146 10 q 89 103 97 65 q 90 189 81 142 q 108 247 94 211 q 152 317 122 282 q 232 379 182 351 q 360 417 282 407 l 567 442 q 590 447 578 443 q 613 459 601 450 q 633 484 624 468 q 649 528 643 500 q 503 646 672 646 q 416 632 450 646 q 360 597 382 618 q 326 551 338 575 q 306 506 314 526 l 193 506 z "},"ä":{"ha":772,"x_min":81,"x_max":781,"o":"m 740 839 l 614 839 l 644 981 l 771 981 l 740 839 m 515 839 l 389 839 l 419 981 l 546 981 l 515 839 m 613 371 q 592 360 604 365 q 556 349 579 354 q 497 338 533 344 q 401 325 460 332 q 349 316 378 322 q 295 297 321 310 q 249 263 269 285 q 221 207 228 242 q 232 114 208 147 q 325 81 256 81 q 411 94 368 81 q 491 130 454 107 q 553 184 528 153 q 586 251 579 215 l 613 371 m 193 506 q 241 617 210 571 q 317 692 272 663 q 420 734 363 721 q 544 747 478 747 q 584 745 558 747 q 638 736 610 743 q 694 716 667 729 q 743 680 722 703 q 772 624 764 657 q 771 544 781 590 l 682 126 q 714 83 674 83 q 733 85 722 83 q 756 89 744 86 l 736 0 q 703 -9 719 -4 q 667 -14 688 -14 q 603 -4 626 -14 q 570 21 581 6 q 559 56 560 36 q 561 97 558 76 q 511 57 539 78 q 449 19 483 36 q 370 -10 414 1 q 274 -21 326 -21 q 185 -6 224 -21 q 122 38 146 10 q 89 103 97 65 q 90 189 81 142 q 108 247 94 211 q 152 317 122 282 q 232 379 182 351 q 360 417 282 407 l 567 442 q 590 447 578 443 q 613 459 601 450 q 633 484 624 468 q 649 528 643 500 q 503 646 672 646 q 416 632 450 646 q 360 597 382 618 q 326 551 338 575 q 306 506 314 526 l 193 506 z "},"å":{"ha":772,"x_min":81,"x_max":781,"o":"m 511 922 q 521 871 504 892 q 568 850 538 850 q 624 871 599 850 q 656 922 649 892 q 646 974 663 953 q 599 994 629 994 q 543 974 568 994 q 511 922 518 953 m 611 1050 q 694 1014 667 1050 q 711 922 722 978 q 656 831 700 867 q 557 794 613 794 q 473 831 501 794 q 456 922 444 867 q 511 1014 467 978 q 611 1050 556 1050 m 613 371 q 592 360 604 365 q 556 349 579 354 q 497 338 533 344 q 401 325 460 332 q 349 316 378 322 q 295 297 321 310 q 249 263 269 285 q 221 207 228 242 q 232 114 208 147 q 325 81 256 81 q 411 94 368 81 q 491 130 454 107 q 553 184 528 153 q 586 251 579 215 l 613 371 m 193 506 q 241 617 210 571 q 317 692 272 663 q 420 734 363 721 q 544 747 478 747 q 584 745 558 747 q 638 736 610 743 q 694 716 667 729 q 743 680 722 703 q 772 624 764 657 q 771 544 781 590 l 682 126 q 714 83 674 83 q 733 85 722 83 q 756 89 744 86 l 736 0 q 703 -9 719 -4 q 667 -14 688 -14 q 603 -4 626 -14 q 570 21 581 6 q 559 56 560 36 q 561 97 558 76 q 511 57 539 78 q 449 19 483 36 q 370 -10 414 1 q 274 -21 326 -21 q 185 -6 224 -21 q 122 38 146 10 q 89 103 97 65 q 90 189 81 142 q 108 247 94 211 q 152 317 122 282 q 232 379 182 351 q 360 417 282 407 l 567 442 q 590 447 578 443 q 613 459 601 450 q 633 484 624 468 q 649 528 643 500 q 503 646 672 646 q 416 632 450 646 q 360 597 382 618 q 326 551 338 575 q 306 506 314 526 l 193 506 z "},"æ":{"ha":1235,"x_min":81,"x_max":1267,"o":"m 613 371 q 592 360 604 365 q 556 349 579 354 q 497 338 533 344 q 401 325 460 332 q 349 316 378 322 q 295 297 321 310 q 249 263 269 285 q 221 207 228 242 q 232 114 208 147 q 325 81 256 81 q 411 94 368 81 q 491 130 454 107 q 553 184 528 153 q 586 251 579 215 l 613 371 m 1215 228 q 1199 191 1211 215 q 1165 138 1186 167 q 1113 81 1143 110 q 1043 29 1082 51 q 969 -4 1015 13 q 836 -21 924 -21 q 728 -4 771 -21 q 660 36 686 13 q 620 85 633 60 q 601 131 607 111 q 451 15 531 50 q 274 -21 372 -21 q 185 -6 224 -21 q 122 38 146 10 q 89 103 97 65 q 90 189 81 142 q 108 247 94 211 q 152 317 122 282 q 232 379 182 351 q 360 417 282 407 l 567 442 q 590 447 578 443 q 613 459 601 450 q 633 484 624 468 q 649 528 643 500 q 503 646 672 646 q 416 632 450 646 q 360 597 382 618 q 326 551 338 575 q 306 506 314 526 l 193 506 q 241 617 210 571 q 317 692 272 663 q 420 734 363 721 q 544 747 478 747 q 631 739 596 747 q 689 716 665 731 q 728 683 713 701 q 760 644 744 665 q 801 676 778 658 q 855 710 824 694 q 927 737 886 726 q 1022 747 968 747 q 1153 717 1101 747 q 1233 632 1206 688 q 1263 498 1260 576 q 1246 324 1267 419 l 715 324 q 730 147 690 210 q 875 85 769 85 q 956 99 918 85 q 1022 136 993 114 q 1069 183 1050 158 q 1093 228 1088 207 l 1215 228 m 1139 421 q 1143 502 1146 463 q 1124 572 1140 542 q 1073 619 1107 601 q 983 638 1039 638 q 901 619 942 638 q 826 572 860 601 q 769 502 793 542 q 735 421 744 463 l 1139 421 z "},"ç":{"ha":694,"x_min":99,"x_max":771,"o":"m 190 -226 q 232 -242 214 -237 q 276 -247 250 -247 q 300 -245 286 -247 q 327 -237 314 -243 q 351 -219 340 -231 q 367 -189 363 -208 q 365 -162 371 -172 q 350 -145 360 -151 q 329 -137 340 -139 q 311 -135 318 -135 q 290 -137 301 -135 q 256 -146 279 -139 l 238 -119 l 333 -18 q 215 17 264 -12 q 139 94 167 46 q 105 205 111 142 q 115 343 99 268 q 169 501 133 428 q 260 630 206 575 q 386 716 314 685 q 549 747 458 747 q 665 724 619 747 q 734 662 710 700 q 765 576 758 624 q 765 482 771 529 l 647 482 q 619 597 651 556 q 508 638 586 638 q 408 613 451 638 q 332 549 364 589 q 280 461 300 510 q 250 364 260 413 q 237 267 240 317 q 247 177 233 218 q 293 110 260 136 q 389 85 326 85 q 508 129 451 85 q 599 257 565 174 l 717 257 q 679 171 704 217 q 616 85 654 125 q 524 17 578 46 q 400 -17 471 -11 l 335 -86 q 356 -82 346 -83 q 379 -81 365 -81 q 433 -90 413 -81 q 464 -116 454 -100 q 476 -150 474 -132 q 474 -185 478 -168 q 411 -276 463 -239 q 282 -312 360 -312 q 212 -303 243 -312 q 156 -282 181 -293 l 190 -226 z "},"è":{"ha":772,"x_min":113,"x_max":807,"o":"m 392 1019 l 542 1019 l 624 824 l 531 824 l 392 1019 m 679 421 q 683 502 686 463 q 664 572 681 542 q 613 619 647 601 q 524 638 579 638 q 441 619 482 638 q 367 572 400 601 q 309 502 333 542 q 275 421 285 463 l 679 421 m 756 228 q 739 191 751 215 q 705 138 726 167 q 653 81 683 110 q 583 29 622 51 q 510 -4 556 13 q 376 -21 464 -21 q 245 6 300 -21 q 159 82 190 33 q 120 197 128 131 q 129 343 113 264 q 183 501 147 428 q 274 630 219 575 q 400 716 328 685 q 563 747 472 747 q 694 717 642 747 q 773 632 746 688 q 803 498 800 576 q 786 324 807 419 l 256 324 q 270 147 231 210 q 415 85 310 85 q 496 99 458 85 q 562 136 533 114 q 609 183 590 158 q 633 228 628 207 l 756 228 z "},"é":{"ha":772,"x_min":113,"x_max":815,"o":"m 593 824 l 500 824 l 665 1019 l 815 1019 l 593 824 m 679 421 q 683 502 686 463 q 664 572 681 542 q 613 619 647 601 q 524 638 579 638 q 441 619 482 638 q 367 572 400 601 q 309 502 333 542 q 275 421 285 463 l 679 421 m 756 228 q 739 191 751 215 q 705 138 726 167 q 653 81 683 110 q 583 29 622 51 q 510 -4 556 13 q 376 -21 464 -21 q 245 6 300 -21 q 159 82 190 33 q 120 197 128 131 q 129 343 113 264 q 183 501 147 428 q 274 630 219 575 q 400 716 328 685 q 563 747 472 747 q 694 717 642 747 q 773 632 746 688 q 803 498 800 576 q 786 324 807 419 l 256 324 q 270 147 231 210 q 415 85 310 85 q 496 99 458 85 q 562 136 533 114 q 609 183 590 158 q 633 228 628 207 l 756 228 z "},"ê":{"ha":772,"x_min":113,"x_max":807,"o":"m 469 824 l 360 824 l 539 1019 l 668 1019 l 764 824 l 653 824 l 589 953 l 469 824 m 679 421 q 683 502 686 463 q 664 572 681 542 q 613 619 647 601 q 524 638 579 638 q 441 619 482 638 q 367 572 400 601 q 309 502 333 542 q 275 421 285 463 l 679 421 m 756 228 q 739 191 751 215 q 705 138 726 167 q 653 81 683 110 q 583 29 622 51 q 510 -4 556 13 q 376 -21 464 -21 q 245 6 300 -21 q 159 82 190 33 q 120 197 128 131 q 129 343 113 264 q 183 501 147 428 q 274 630 219 575 q 400 716 328 685 q 563 747 472 747 q 694 717 642 747 q 773 632 746 688 q 803 498 800 576 q 786 324 807 419 l 256 324 q 270 147 231 210 q 415 85 310 85 q 496 99 458 85 q 562 136 533 114 q 609 183 590 158 q 633 228 628 207 l 756 228 z "},"ë":{"ha":772,"x_min":113,"x_max":807,"o":"m 740 839 l 614 839 l 644 981 l 771 981 l 740 839 m 515 839 l 389 839 l 419 981 l 546 981 l 515 839 m 679 421 q 683 502 686 463 q 664 572 681 542 q 613 619 647 601 q 524 638 579 638 q 441 619 482 638 q 367 572 400 601 q 309 502 333 542 q 275 421 285 463 l 679 421 m 756 228 q 739 191 751 215 q 705 138 726 167 q 653 81 683 110 q 583 29 622 51 q 510 -4 556 13 q 376 -21 464 -21 q 245 6 300 -21 q 159 82 190 33 q 120 197 128 131 q 129 343 113 264 q 183 501 147 428 q 274 630 219 575 q 400 716 328 685 q 563 747 472 747 q 694 717 642 747 q 773 632 746 688 q 803 498 800 576 q 786 324 807 419 l 256 324 q 270 147 231 210 q 415 85 310 85 q 496 99 458 85 q 562 136 533 114 q 609 183 590 158 q 633 228 628 207 l 756 228 z "},"ì":{"ha":386,"x_min":132,"x_max":431,"o":"m 199 1019 l 349 1019 l 431 824 l 338 824 l 199 1019 m 254 0 l 132 0 l 286 726 l 408 726 l 254 0 z "},"í":{"ha":386,"x_min":132,"x_max":622,"o":"m 400 824 l 307 824 l 472 1019 l 622 1019 l 400 824 m 254 0 l 132 0 l 286 726 l 408 726 l 254 0 z "},"î":{"ha":386,"x_min":132,"x_max":571,"o":"m 276 824 l 167 824 l 346 1019 l 475 1019 l 571 824 l 460 824 l 396 953 l 276 824 m 254 0 l 132 0 l 286 726 l 408 726 l 254 0 z "},"ï":{"ha":386,"x_min":132,"x_max":578,"o":"m 547 839 l 421 839 l 451 981 l 578 981 l 547 839 m 322 839 l 196 839 l 226 981 l 353 981 l 322 839 m 254 0 l 132 0 l 286 726 l 408 726 l 254 0 z "},"ð":{"ha":772,"x_min":108,"x_max":857,"o":"m 693 897 q 810 674 779 799 q 813 414 842 549 q 738 206 786 289 q 630 72 689 122 q 509 0 571 21 q 393 -21 447 -21 q 242 12 301 -21 q 152 97 183 44 q 115 217 121 150 q 124 353 108 283 q 173 488 138 421 q 260 608 208 556 q 377 694 311 661 q 521 726 443 726 q 559 724 538 726 q 603 715 581 722 q 648 692 626 707 q 689 650 669 676 l 693 653 q 649 763 682 713 q 581 850 617 814 l 390 764 l 344 822 l 525 901 q 417 974 476 946 l 531 1024 q 642 953 594 996 l 804 1024 l 857 968 l 693 897 m 250 353 q 242 278 243 324 q 254 190 240 233 q 303 116 268 147 q 404 85 338 85 q 519 116 471 85 q 599 190 567 147 q 648 278 631 233 q 672 353 665 324 q 680 427 678 382 q 668 515 682 472 q 619 590 654 558 q 518 621 585 621 q 403 590 451 621 q 324 515 356 558 q 274 427 292 472 q 250 353 256 382 z "},"ñ":{"ha":772,"x_min":90,"x_max":822,"o":"m 822 1003 q 796 944 813 971 q 757 896 779 917 q 708 863 735 875 q 651 851 681 851 q 616 856 632 851 q 574 869 600 860 l 540 882 q 490 899 507 894 q 460 903 472 903 q 414 886 432 903 q 382 842 396 869 l 315 842 q 379 947 336 903 q 492 990 422 990 q 540 984 519 990 q 581 969 561 978 l 608 957 q 645 944 628 949 q 671 939 663 939 q 706 945 692 939 q 728 961 719 951 q 743 982 738 971 q 753 1003 749 993 l 822 1003 m 682 0 l 560 0 l 654 447 q 652 590 675 542 q 540 638 629 638 q 478 628 514 638 q 408 591 443 618 q 343 517 374 564 q 297 396 313 469 l 213 0 l 90 0 l 244 726 l 360 726 l 338 624 l 340 624 q 376 659 353 638 q 430 700 399 681 q 500 733 461 719 q 586 747 539 747 q 671 737 628 747 q 745 699 714 726 q 790 622 776 671 q 788 494 804 572 l 682 0 z "},"ò":{"ha":772,"x_min":111,"x_max":815,"o":"m 392 1019 l 542 1019 l 624 824 l 531 824 l 392 1019 m 253 364 q 243 280 244 328 q 256 189 242 232 q 304 116 269 146 q 404 86 339 86 q 517 116 469 86 q 597 189 565 146 q 648 280 629 232 q 675 364 667 328 q 685 448 683 400 q 672 539 686 496 q 623 612 658 582 q 522 642 588 642 q 410 612 457 642 q 330 539 363 582 q 279 448 297 496 q 253 364 261 400 m 126 364 q 175 503 140 435 q 263 626 210 572 q 387 714 317 681 q 544 747 457 747 q 688 714 632 747 q 774 626 744 681 q 810 503 804 572 q 801 364 815 435 q 751 224 786 293 q 663 101 717 156 q 540 14 610 47 q 382 -19 469 -19 q 238 14 294 -19 q 152 101 182 47 q 117 224 122 156 q 126 364 111 293 z "},"ó":{"ha":772,"x_min":111,"x_max":815,"o":"m 593 824 l 500 824 l 665 1019 l 815 1019 l 593 824 m 253 364 q 243 280 244 328 q 256 189 242 232 q 304 116 269 146 q 404 86 339 86 q 517 116 469 86 q 597 189 565 146 q 648 280 629 232 q 675 364 667 328 q 685 448 683 400 q 672 539 686 496 q 623 612 658 582 q 522 642 588 642 q 410 612 457 642 q 330 539 363 582 q 279 448 297 496 q 253 364 261 400 m 126 364 q 175 503 140 435 q 263 626 210 572 q 387 714 317 681 q 544 747 457 747 q 688 714 632 747 q 774 626 744 681 q 810 503 804 572 q 801 364 815 435 q 751 224 786 293 q 663 101 717 156 q 540 14 610 47 q 382 -19 469 -19 q 238 14 294 -19 q 152 101 182 47 q 117 224 122 156 q 126 364 111 293 z "},"ô":{"ha":772,"x_min":111,"x_max":815,"o":"m 469 824 l 360 824 l 539 1019 l 668 1019 l 764 824 l 653 824 l 589 953 l 469 824 m 253 364 q 243 280 244 328 q 256 189 242 232 q 304 116 269 146 q 404 86 339 86 q 517 116 469 86 q 597 189 565 146 q 648 280 629 232 q 675 364 667 328 q 685 448 683 400 q 672 539 686 496 q 623 612 658 582 q 522 642 588 642 q 410 612 457 642 q 330 539 363 582 q 279 448 297 496 q 253 364 261 400 m 126 364 q 175 503 140 435 q 263 626 210 572 q 387 714 317 681 q 544 747 457 747 q 688 714 632 747 q 774 626 744 681 q 810 503 804 572 q 801 364 815 435 q 751 224 786 293 q 663 101 717 156 q 540 14 610 47 q 382 -19 469 -19 q 238 14 294 -19 q 152 101 182 47 q 117 224 122 156 q 126 364 111 293 z "},"õ":{"ha":772,"x_min":111,"x_max":836,"o":"m 836 1003 q 810 944 826 971 q 771 896 793 917 q 722 863 749 875 q 665 851 694 851 q 630 856 646 851 q 588 869 614 860 l 554 882 q 503 899 521 894 q 474 903 486 903 q 428 886 446 903 q 396 842 410 869 l 329 842 q 393 947 350 903 q 506 990 436 990 q 554 984 533 990 q 594 969 575 978 l 622 957 q 659 944 642 949 q 685 939 676 939 q 719 945 706 939 q 742 961 733 951 q 757 982 751 971 q 767 1003 763 993 l 836 1003 m 253 364 q 243 280 244 328 q 256 189 242 232 q 304 116 269 146 q 404 86 339 86 q 517 116 469 86 q 597 189 565 146 q 648 280 629 232 q 675 364 667 328 q 685 448 683 400 q 672 539 686 496 q 623 612 658 582 q 522 642 588 642 q 410 612 457 642 q 330 539 363 582 q 279 448 297 496 q 253 364 261 400 m 126 364 q 175 503 140 435 q 263 626 210 572 q 387 714 317 681 q 544 747 457 747 q 688 714 632 747 q 774 626 744 681 q 810 503 804 572 q 801 364 815 435 q 751 224 786 293 q 663 101 717 156 q 540 14 610 47 q 382 -19 469 -19 q 238 14 294 -19 q 152 101 182 47 q 117 224 122 156 q 126 364 111 293 z "},"ö":{"ha":772,"x_min":111,"x_max":815,"o":"m 740 839 l 614 839 l 644 981 l 771 981 l 740 839 m 515 839 l 389 839 l 419 981 l 546 981 l 515 839 m 253 364 q 243 280 244 328 q 256 189 242 232 q 304 116 269 146 q 404 86 339 86 q 517 116 469 86 q 597 189 565 146 q 648 280 629 232 q 675 364 667 328 q 685 448 683 400 q 672 539 686 496 q 623 612 658 582 q 522 642 588 642 q 410 612 457 642 q 330 539 363 582 q 279 448 297 496 q 253 364 261 400 m 126 364 q 175 503 140 435 q 263 626 210 572 q 387 714 317 681 q 544 747 457 747 q 688 714 632 747 q 774 626 744 681 q 810 503 804 572 q 801 364 815 435 q 751 224 786 293 q 663 101 717 156 q 540 14 610 47 q 382 -19 469 -19 q 238 14 294 -19 q 152 101 182 47 q 117 224 122 156 q 126 364 111 293 z "},"÷":{"ha":811,"x_min":118,"x_max":842,"o":"m 325 68 q 368 135 333 108 q 440 163 403 163 q 501 135 479 163 q 514 68 522 107 q 499 33 510 50 q 472 3 488 17 q 438 -18 457 -10 q 400 -26 419 -26 q 340 1 363 -26 q 325 68 318 29 m 446 633 q 488 701 454 674 q 560 728 522 728 q 621 700 599 728 q 635 633 643 672 q 619 599 631 615 q 592 569 608 582 q 558 547 576 556 q 519 539 539 539 q 460 567 482 539 q 446 633 438 594 m 118 300 l 139 401 l 842 401 l 821 300 l 118 300 z "},"ø":{"ha":849,"x_min":40,"x_max":899,"o":"m 274 150 q 322 104 290 122 q 404 86 354 86 q 517 116 469 86 q 597 189 565 146 q 648 280 629 232 q 675 364 667 328 q 684 438 682 396 q 676 518 686 479 l 274 150 m 658 569 q 608 622 642 601 q 522 642 575 642 q 410 612 457 642 q 330 539 363 582 q 279 448 297 496 q 253 364 261 400 q 243 285 246 329 q 251 199 240 240 l 658 569 m 781 613 q 811 495 807 560 q 801 364 815 431 q 751 224 786 293 q 663 101 717 156 q 540 14 610 47 q 382 -19 469 -19 q 261 3 311 -19 q 179 64 211 25 l 75 -31 l 40 6 l 150 106 q 117 226 122 158 q 126 364 111 293 q 175 503 140 435 q 263 626 210 572 q 387 714 317 681 q 544 747 457 747 q 671 723 619 747 q 754 657 722 699 l 864 757 l 899 721 l 781 613 z "},"ù":{"ha":772,"x_min":124,"x_max":833,"o":"m 392 1019 l 542 1019 l 624 824 l 531 824 l 392 1019 m 564 0 l 586 106 l 585 108 q 473 12 532 44 q 326 -21 414 -21 q 247 -10 286 -21 q 178 26 207 0 q 137 96 150 53 q 138 204 124 139 l 249 726 l 371 726 l 268 244 q 263 169 258 200 q 283 120 268 139 q 322 93 297 101 q 375 85 346 85 q 476 108 433 85 q 550 166 519 131 q 599 244 581 201 q 626 326 618 286 l 711 726 l 833 726 l 679 0 l 564 0 z "},"ú":{"ha":772,"x_min":124,"x_max":833,"o":"m 593 824 l 500 824 l 665 1019 l 815 1019 l 593 824 m 564 0 l 586 106 l 585 108 q 473 12 532 44 q 326 -21 414 -21 q 247 -10 286 -21 q 178 26 207 0 q 137 96 150 53 q 138 204 124 139 l 249 726 l 371 726 l 268 244 q 263 169 258 200 q 283 120 268 139 q 322 93 297 101 q 375 85 346 85 q 476 108 433 85 q 550 166 519 131 q 599 244 581 201 q 626 326 618 286 l 711 726 l 833 726 l 679 0 l 564 0 z "},"û":{"ha":772,"x_min":124,"x_max":833,"o":"m 469 824 l 360 824 l 539 1019 l 668 1019 l 764 824 l 653 824 l 589 953 l 469 824 m 564 0 l 586 106 l 585 108 q 473 12 532 44 q 326 -21 414 -21 q 247 -10 286 -21 q 178 26 207 0 q 137 96 150 53 q 138 204 124 139 l 249 726 l 371 726 l 268 244 q 263 169 258 200 q 283 120 268 139 q 322 93 297 101 q 375 85 346 85 q 476 108 433 85 q 550 166 519 131 q 599 244 581 201 q 626 326 618 286 l 711 726 l 833 726 l 679 0 l 564 0 z "},"ü":{"ha":772,"x_min":124,"x_max":833,"o":"m 740 839 l 614 839 l 644 981 l 771 981 l 740 839 m 515 839 l 389 839 l 419 981 l 546 981 l 515 839 m 564 0 l 586 106 l 585 108 q 473 12 532 44 q 326 -21 414 -21 q 247 -10 286 -21 q 178 26 207 0 q 137 96 150 53 q 138 204 124 139 l 249 726 l 371 726 l 268 244 q 263 169 258 200 q 283 120 268 139 q 322 93 297 101 q 375 85 346 85 q 476 108 433 85 q 550 166 519 131 q 599 244 581 201 q 626 326 618 286 l 711 726 l 833 726 l 679 0 l 564 0 z "},"ý":{"ha":694,"x_min":21,"x_max":833,"o":"m 554 824 l 461 824 l 626 1019 l 776 1019 l 554 824 m 699 726 l 833 726 q 631 370 732 547 q 421 14 529 193 q 313 -159 354 -97 q 238 -252 272 -221 q 167 -290 204 -283 q 71 -297 129 -297 q 46 -294 57 -297 q 21 -286 35 -290 l 44 -175 q 73 -183 56 -179 q 115 -187 90 -187 q 155 -183 139 -187 q 188 -160 171 -178 q 226 -109 204 -142 q 281 -19 247 -76 l 169 726 l 308 726 l 376 135 l 379 135 l 699 726 z "},"þ":{"ha":772,"x_min":19,"x_max":817,"o":"m 293 997 l 415 997 l 336 626 l 339 626 q 371 661 351 640 q 419 701 390 682 q 485 734 447 721 q 574 747 524 747 q 697 719 646 747 q 776 642 747 692 q 810 527 804 593 q 800 385 817 461 q 756 248 786 319 q 676 117 725 176 q 557 18 626 57 q 394 -21 488 -21 q 279 8 321 -21 q 222 76 238 38 l 219 76 l 142 -287 l 19 -287 l 293 997 m 267 329 q 262 210 251 257 q 296 135 272 163 q 352 96 319 107 q 414 85 385 85 q 505 106 464 85 q 578 165 546 128 q 634 254 611 203 q 669 365 657 306 q 682 447 676 400 q 677 537 688 494 q 633 608 667 579 q 529 638 600 638 q 417 606 463 638 q 341 528 371 575 q 294 427 311 481 q 267 329 276 374 z "},"ÿ":{"ha":694,"x_min":21,"x_max":833,"o":"m 701 839 l 575 839 l 606 981 l 732 981 l 701 839 m 476 839 l 350 839 l 381 981 l 507 981 l 476 839 m 699 726 l 833 726 q 631 370 732 547 q 421 14 529 193 q 313 -159 354 -97 q 238 -252 272 -221 q 167 -290 204 -283 q 71 -297 129 -297 q 46 -294 57 -297 q 21 -286 35 -290 l 44 -175 q 73 -183 56 -179 q 115 -187 90 -187 q 155 -183 139 -187 q 188 -160 171 -178 q 226 -109 204 -142 q 281 -19 247 -76 l 169 726 l 308 726 l 376 135 l 379 135 l 699 726 z "},"!":{"ha":386,"x_min":125,"x_max":472,"o":"m 208 238 l 267 668 l 338 997 l 472 997 l 401 668 l 276 238 l 208 238 m 260 0 l 125 0 l 156 142 l 290 142 l 260 0 z "},"∕":{"ha":232,"x_min":-236,"x_max":669,"o":"m -157 -26 l -236 -26 l 590 976 l 669 976 l -157 -26 z "},"ﬁ":{"ha":694,"x_min":119,"x_max":815,"o":"m 663 858 l 693 997 l 815 997 l 785 858 l 663 858 m 603 0 l 481 0 l 635 726 l 757 726 l 603 0 m 375 625 l 242 0 l 119 0 l 253 625 l 153 625 l 174 726 l 274 726 l 300 851 q 376 973 318 935 q 524 1011 433 1011 q 551 1010 538 1011 q 578 1008 564 1010 l 556 899 q 531 901 544 900 q 506 901 517 901 q 445 881 465 901 q 415 817 425 861 l 396 726 l 518 726 l 497 625 l 375 625 z "},"ﬂ":{"ha":694,"x_min":119,"x_max":813,"o":"m 600 0 l 478 0 l 690 997 l 813 997 l 600 0 m 375 625 l 242 0 l 119 0 l 253 625 l 153 625 l 174 726 l 274 726 l 300 851 q 376 973 318 935 q 524 1011 433 1011 q 551 1010 538 1011 q 578 1008 564 1010 l 556 899 q 531 901 544 900 q 506 901 517 901 q 445 881 465 901 q 415 817 425 861 l 396 726 l 518 726 l 497 625 l 375 625 z "},"˘":{"ha":463,"x_min":232,"x_max":661,"o":"m 661 1015 q 559 869 629 913 q 400 826 489 826 q 296 849 331 826 q 247 903 261 872 q 232 965 232 933 q 233 1015 232 997 l 301 1015 q 307 984 304 1003 q 321 949 310 965 q 359 918 333 931 q 429 906 385 906 q 499 917 471 906 q 545 944 526 928 q 575 980 564 961 q 594 1015 586 999 l 661 1015 z "},"˙":{"ha":463,"x_min":346,"x_max":503,"o":"m 472 839 l 346 839 l 376 981 l 503 981 l 472 839 z "},"˚":{"ha":463,"x_min":289,"x_max":567,"o":"m 356 922 q 365 871 349 892 q 413 850 382 850 q 468 871 443 850 q 500 922 493 892 q 490 974 507 953 q 443 994 474 994 q 388 974 413 994 q 356 922 363 953 m 456 1050 q 539 1014 511 1050 q 556 922 567 978 q 501 831 544 867 q 401 794 457 794 q 317 831 346 794 q 300 922 289 867 q 356 1014 311 978 q 456 1050 400 1050 z "},"˝":{"ha":463,"x_min":218,"x_max":785,"o":"m 561 824 l 468 824 l 633 1019 l 785 1019 l 561 824 m 311 824 l 218 824 l 383 1019 l 535 1019 l 311 824 z "},"˛":{"ha":463,"x_min":51,"x_max":346,"o":"m 339 -282 q 283 -301 324 -289 q 199 -312 243 -312 q 86 -276 121 -312 q 63 -185 51 -239 q 77 -142 67 -168 q 109 -90 88 -117 q 165 -38 131 -62 q 253 0 200 -14 l 346 0 l 344 -6 q 266 -49 297 -29 q 215 -89 235 -69 q 185 -130 194 -108 q 169 -178 175 -151 q 169 -215 164 -201 q 185 -236 175 -229 q 209 -245 196 -243 q 232 -247 222 -247 q 278 -242 258 -247 q 326 -226 299 -237 l 339 -282 z "},"ˇ":{"ha":463,"x_min":246,"x_max":650,"o":"m 419 890 l 539 1019 l 650 1019 l 471 824 l 342 824 l 246 1019 l 356 1019 l 419 890 z "},"Ł":{"ha":772,"x_min":57,"x_max":771,"o":"m 540 642 l 357 549 l 265 119 l 771 119 l 746 0 l 106 0 l 207 478 l 57 401 l 75 482 l 224 558 l 318 997 l 453 997 l 374 629 l 558 722 l 540 642 z "},"ı":{"ha":386,"x_min":132,"x_max":408,"o":"m 254 0 l 132 0 l 286 726 l 408 726 l 254 0 z "},"ł":{"ha":308,"x_min":57,"x_max":482,"o":"m 329 535 l 215 0 l 93 0 l 193 471 l 57 401 l 75 482 l 210 551 l 306 997 l 428 997 l 346 615 l 482 685 l 464 604 l 329 535 z "},"−":{"ha":811,"x_min":118,"x_max":842,"o":"m 118 300 l 139 401 l 842 401 l 821 300 l 118 300 z "}}}
